<?xml version="1.0" standalone="no"?>
<!DOCTYPE svg PUBLIC "-//W3C//DTD SVG 1.1//EN" "http://www.w3.org/Graphics/SVG/1.1/DTD/svg11.dtd" >
<svg xmlns="http://www.w3.org/2000/svg" xmlns:xlink="http://www.w3.org/1999/xlink" version="1.1">
<metadata></metadata>
<defs>
<font id="flanellaregular" horiz-adv-x="409" >
<font-face units-per-em="2048" ascent="1638" descent="-410" />
<missing-glyph horiz-adv-x="1024" />
<glyph horiz-adv-x="0" />
<glyph unicode="&#xd;" horiz-adv-x="1024" />
<glyph horiz-adv-x="0" />
<glyph horiz-adv-x="0" />
<glyph unicode=" "  horiz-adv-x="1024" />
<glyph unicode="&#x09;" horiz-adv-x="1024" />
<glyph unicode="&#xa0;" horiz-adv-x="1024" />
<glyph unicode="!" horiz-adv-x="370" d="M25 227q0 12 9 21.5t19 9.5q12 0 19.5 -9t9.5 -22q0 -12 -9.5 -22t-19.5 -10q-25 0 -28 32zM49.5 489.5q3.5 59.5 16.5 120.5q10 66 25 129.5t32 128.5q18 63 36.5 126t41.5 124q20 55 40.5 115.5t55.5 105.5q10 12 22.5 4t8.5 -22q-14 -57 -42 -111.5t-50 -107.5 q-23 -57 -44.5 -115.5t-37.5 -118.5q-35 -117 -64 -244.5t-18 -252.5q2 -4 -1 -4t-5 2q-20 61 -16.5 120.5z" />
<glyph unicode="&#x22;" horiz-adv-x="440" d="M172 1411q-2 12 7 21.5t20 9.5h2q6 4 14 3t12 -11q8 -16 10.5 -37t-4 -39.5t-19.5 -30.5t-34 -10q-4 0 -6 4t2 8q16 20 21 49q-25 4 -25 33zM281 1411q-2 12 7 21.5t19 9.5h2q6 4 14.5 3t12.5 -11q8 -16 10 -37t-4 -39.5t-19.5 -30.5t-33.5 -10q-4 0 -6 4t2 8 q16 20 20 49q-25 4 -24 33z" />
<glyph unicode="#" horiz-adv-x="638" d="M4.5 616.5q-4.5 18.5 11.5 22.5q33 10 66 16.5t68 12.5q6 18 12 35.5t10 33.5t9 29.5t9 28.5q-14 -2 -27 -3t-26 -4q-23 -2 -38 -4t-31 19v6q12 25 33.5 25h43.5q14 2 27.5 2h30.5q39 129 86 249q4 10 12 12.5t15.5 -2.5t11.5 -14.5t0 -21.5q-23 -55 -45.5 -110.5 t-44.5 -112.5h34q29 0 57.5 2t57.5 0q20 59 43 115.5t47 111.5q6 12 15.5 13t16.5 -4t11 -14t0 -22q-23 -51 -45 -102t-45 -105q27 -6 59 -24q4 -4 2 -8t-6 -2q-16 6 -31.5 9t-31.5 7q-10 -25 -18.5 -48.5t-18.5 -45.5q-4 -10 -7 -20.5t-7 -20.5q18 -4 36.5 -9t36.5 -16 q4 -4 2 -8t-6 -2q-35 14 -78 14q-23 -68 -44 -136t-44 -136q-2 -4 -6 -3t-4 5q10 68 26.5 135.5t37.5 132.5q-23 -2 -46.5 -5t-43.5 -7q-18 -4 -37 -6t-35 -6q-20 -59 -35.5 -120.5t-19.5 -125.5q-2 -6 -6.5 -6t-6.5 6q-4 59 8.5 119.5t30.5 120.5q-29 -4 -56.5 -10.5 t-55.5 -12.5q-16 -4 -20.5 14.5zM178 672q18 2 37 3t39 3t40.5 3t41.5 1q4 14 9 28.5t9 30.5l25 74q-35 0 -70 -4t-69 -8q-4 -2 -17 -2q-6 -18 -12 -35.5t-12 -36.5q-4 -14 -10.5 -28.5t-10.5 -28.5z" />
<glyph unicode="$" horiz-adv-x="1019" d="M0 352q0 4 4 6t6 -2q43 -78 115 -103.5t145 -8.5q8 49 16.5 97t18.5 97q10 47 20.5 92t20.5 93q-4 2 -8 3t-8 3q-47 20 -88 48t-64 81q-25 57 -14.5 120.5t38 124t66.5 113.5t74 92q16 20 43 46t59.5 48.5t67.5 40t70 21.5q33 82 67 152q10 18 24.5 7.5t6.5 -28.5 q-14 -35 -28.5 -66.5t-28.5 -66.5q49 -10 77 -64q23 -47 14 -100t-28 -98q-29 -66 -68.5 -125.5t-87.5 -110.5q-2 -2 -5 0t1 6q49 63 95.5 145.5t56.5 168.5q6 49 -13.5 86t-66.5 37q-18 -41 -35.5 -82t-34.5 -82q-33 -86 -60.5 -173t-53.5 -177q-10 -39 -19.5 -77 t-19.5 -79q53 -20 102 -47t74 -90q20 -57 3 -104.5t-56 -82t-87.5 -59.5t-84.5 -39q-8 -4 -15.5 -6t-17.5 -6q-4 -35 -10.5 -71t-16.5 -69q-2 -4 -6 -4t-4 7q-4 33 0 65.5t8 65.5q-43 -6 -87 -3t-81 19t-63.5 50t-32.5 89zM204 831.5q-1 -38.5 15 -75.5q20 -45 56 -68.5 t77 -40.5q10 41 20.5 81t20.5 81q27 92 55.5 181t61.5 179q12 35 23.5 67t23.5 67q-53 -16 -98 -52q-53 -39 -95 -92t-77 -112q-18 -29 -38 -65t-32 -74t-13 -76.5zM299 252q31 8 74 25.5t82 43t62 61.5t15 83q-6 33 -22 56.5t-40 40t-50.5 28.5t-50.5 22q-10 -45 -19.5 -90 t-19.5 -92z" />
<glyph unicode="%" horiz-adv-x="606" d="M0 164q14 88 44 173t58 167q29 78 57.5 154.5t61.5 154.5q33 82 68 163t71 161q18 39 37 75.5t37 73.5q16 35 33.5 73.5t44.5 65.5q8 8 17.5 2t7.5 -16q-10 -41 -31 -77t-39 -70q-18 -39 -37.5 -78t-38.5 -80q-35 -76 -68.5 -150.5t-66.5 -152.5q-35 -84 -67.5 -167 t-63.5 -169q-29 -78 -53.5 -157t-59.5 -152q-4 -6 -9 -3t-3 9zM73 1079.5q3 36.5 11 67.5q8 27 20.5 60.5t31 64.5t42 53.5t51.5 28.5q0 2 2 4q31 29 64 -4q20 -23 19 -53.5t-5 -59.5q-6 -33 -17 -70.5t-29.5 -73.5t-43 -66t-53.5 -42q-49 -23 -80 25q-16 29 -13 65.5z M115 1061q4 -23 7 -28t23 -9t29.5 2t26.5 23q4 4 9 11t9 13q31 41 47 82q6 12 14.5 44t11.5 64.5t-3 58.5t-29 28q0 -6 -4 -7q-47 -12 -73.5 -56t-43.5 -91q-6 -18 -11 -38t-9 -40q-2 -16 -4 -29.5t0 -27.5zM184 317q-2 45 12.5 88.5t30.5 83.5q10 27 24.5 54.5t37.5 42.5 q10 14 33 24t46 6t40 -26q20 -33 21 -77t-10 -90t-30.5 -87t-40.5 -66q-23 -27 -50.5 -39t-53 -8t-43 27.5t-17.5 66.5zM225 326q-2 -25 8 -45q12 -18 25.5 -19.5t28 5.5t26 19.5t19.5 22.5q29 41 47 95.5t16 107.5q0 41 -23.5 61.5t-54.5 6.5q-23 -16 -33 -47t-20 -56 q-10 -27 -18 -52.5t-15 -53.5q-4 -20 -6 -45z" />
<glyph unicode="&#x26;" horiz-adv-x="927" d="M0 459q-2 70 16.5 136.5t49 127.5t70.5 118.5t83 110.5q-4 70 1 139.5t28 133.5q16 47 43.5 90t68.5 63q16 14 43 21q27 8 54.5 0t44.5 -37q23 -35 9.5 -75t-34.5 -70q-47 -74 -103.5 -141.5t-111.5 -137.5q4 -33 11.5 -64.5t15.5 -60.5q53 -213 182 -383 q10 -12 19.5 -24.5t19.5 -24.5q35 39 61.5 84t46.5 92q23 55 38.5 119.5t7.5 126.5q-4 27 -13.5 55.5t-26 53t-39 42t-48.5 21.5q-4 2 -3 8t5 6q51 -4 84.5 -28.5t53 -64.5t25 -89t-3.5 -98q-14 -100 -59 -189.5t-111 -159.5q29 -35 63 -66.5t70.5 -57t75.5 -41t80 -15.5 q10 0 12 -11t-8 -13q-43 -10 -86 5t-84 42.5t-77.5 64.5t-65.5 72q-4 -4 -8 -7t-8 -7q-33 -29 -69 -54.5t-76 -41t-82 -20.5t-85 5q-80 18 -129 85t-51 159zM44 403.5q7 -63.5 48 -110.5q43 -47 102.5 -56.5t112.5 7.5q53 14 98.5 43.5t83.5 70.5q-96 102 -163.5 230.5 t-94.5 275.5q-4 16 -4 29q-59 -80 -110 -171t-70 -196q-10 -59 -3 -122.5zM258 997q27 31 52.5 60.5t49.5 58.5q14 16 43 46t52.5 65t32.5 69.5t-11 61.5q-16 18 -31.5 23t-31.5 1q-29 -10 -45 -24q-25 -23 -45.5 -50.5t-30.5 -50.5l-12 -30q-16 -53 -21.5 -111.5 t-1.5 -118.5z" />
<glyph unicode="'" horiz-adv-x="321" d="M135 1411q-2 12 7.5 21.5t19.5 9.5h2q6 4 14 3t12 -11q8 -16 10.5 -37t-4 -39.5t-19.5 -30.5t-34 -10q-4 0 -6 4t2 8q16 20 21 49q-25 4 -25 33z" />
<glyph unicode="(" horiz-adv-x="419" d="M2 643q8 102 25 188q39 207 137 396q47 88 108.5 170t141.5 135q4 4 6 0t-2 -8q-55 -78 -111.5 -152t-103.5 -162q-43 -84 -76 -173t-53 -183q-18 -86 -27.5 -186.5t-1.5 -198.5t40 -187t95 -155q4 -4 1 -8t-7 -2q-78 51 -117 138t-51 186.5t-4 201.5z" />
<glyph unicode=")" horiz-adv-x="442" d="M0 135q102 150 175 316.5t110 351.5q20 98 28.5 199.5t-2 199.5t-43 190.5t-94.5 172.5q-2 4 0 8t6 0q76 -61 116 -148.5t53 -185.5t7 -200.5t-22 -194.5q-35 -201 -114 -387.5t-212 -327.5q-4 -2 -7 0t-1 6z" />
<glyph unicode="*" horiz-adv-x="385" d="M0 979q23 39 51.5 69.5t59.5 59.5q0 2 1 4t1 4q-20 29 -39 56.5t-39 56.5q-2 2 1 4t5 0l37.5 -37.5t38.5 -40.5q4 37 11 72t24 63q0 2 3 2t3 -4q6 -33 3 -68.5t-7 -72.5q23 25 51 47.5t57 26.5l2 -2q-10 -35 -42 -63t-58 -52q23 -29 44 -59.5t40 -65.5q2 -2 1 -4t-5 0 q-29 23 -53.5 48.5t-47.5 53.5l-2 -2q-8 -63 -19 -124.5t-30 -121.5q-2 -4 -6 -3t-2 5q0 53 5 106.5t13 106.5q-23 -23 -44 -41t-48 -34q-4 -4 -8 1t-2 9z" />
<glyph unicode="+" horiz-adv-x="452" d="M8 725q0 4 4 6q41 4 84 5t84 3q8 47 17.5 94.5t27.5 86.5h2q10 -41 5 -87.5t-13 -91.5q35 4 71.5 6t71.5 -6q4 -2 4.5 -6t-4.5 -6q-35 -18 -73.5 -21t-75.5 -6q0 -2 -1 -3t-1 -3q-10 -59 -26.5 -115.5t-39.5 -113.5q-2 -4 -6 -3t-2 5q12 115 37 229v4q-41 0 -82 3.5 t-80 15.5q-4 0 -4 4z" />
<glyph unicode="," horiz-adv-x="317" d="M111 424q-2 12 7 21.5t19 9.5h2q6 4 14.5 3t12.5 -12q8 -16 10 -36.5t-4 -39t-19.5 -30.5t-33.5 -10q-4 0 -6 4t2 8q16 20 20 49q-25 4 -24 33z" />
<glyph unicode="-" d="M27 760q-6 0 0 6q29 16 63.5 17t67.5 1q37 0 74.5 -4t74.5 -14q4 -2 4 -6t-4 -4q-37 -10 -74.5 -14.5t-74.5 -2.5q-33 0 -67.5 2.5t-63.5 18.5z" />
<glyph unicode="." horiz-adv-x="204" d="M74 420q0 16 12 22q6 9 18 9q12 2 19.5 -8.5t9.5 -22.5q0 -14 -9 -23.5t-20 -9.5q-10 0 -18 8q-12 8 -12 25z" />
<glyph unicode="/" horiz-adv-x="440" d="M10 145q25 98 43.5 163t35.5 123t37.5 121.5t53.5 162.5q35 109 71 216t75 216q35 102 73.5 200.5t75.5 198.5q4 14 9 13.5t1 -15.5q-35 -111 -64.5 -219t-64.5 -219q-33 -102 -66.5 -202.5t-68.5 -203.5q-33 -96 -54.5 -160.5t-42 -121t-45 -118.5t-61.5 -157 q-4 -6 -7 -6t-1 8z" />
<glyph unicode="0" horiz-adv-x="571" d="M1 523q9 85 24 167q33 176 98 346q33 82 69.5 161t83.5 153q35 55 82.5 100t116.5 39q4 0 4 -2q35 -6 62.5 -34t40.5 -60q29 -82 24.5 -177.5t-16.5 -179.5q-25 -174 -92.5 -336.5t-157.5 -314.5q-16 -27 -35.5 -60.5t-43 -63.5t-52.5 -51.5t-66 -25.5q-35 -4 -59.5 12.5 t-40.5 42t-25.5 57.5t-13.5 60q-12 82 -3 167zM37 428q0 -39 5 -79t21 -75q20 -47 60.5 -53t79.5 27q51 43 86 105.5t67 119.5q66 123 116 251t75 265q14 68 19 137.5t1 139.5q-2 25 -8 59.5t-19.5 66t-34 55t-50.5 23.5q-33 -12 -59.5 -34.5t-48 -51t-40 -60.5t-35.5 -60 q-76 -141 -127 -287q-47 -129 -77.5 -269.5t-30.5 -279.5z" />
<glyph unicode="1" horiz-adv-x="331" d="M3 346q-1 33 3 60q10 90 35 177t49 173q55 199 125 385q16 47 33.5 91t36.5 87q10 27 21 52.5t24 51.5q-27 -25 -57.5 -43t-61.5 -22q-16 0 -20.5 16.5t10.5 24.5q23 12 47 18t47 19q39 20 72 57l6 6q4 4 6 4q6 6 10 -2q2 -2 2 -10q-10 -45 -29.5 -89t-35.5 -87 q-16 -41 -31.5 -84t-32.5 -84q-29 -84 -56 -166t-52 -168t-48.5 -173t-42.5 -175q-8 -35 -12 -70t-2 -69q2 -37 14.5 -65t32.5 -58q4 -14 -8 -10q-31 8 -48 33.5t-26.5 56t-10.5 63.5z" />
<glyph unicode="2" horiz-adv-x="673" d="M7 283.5q16 50.5 44 95.5q35 53 79 101t89 95q86 88 171 174.5t153 188.5q35 49 61.5 101.5t44.5 107.5q16 53 26.5 115.5t-5.5 117.5q-10 35 -34 56.5t-53.5 31t-63.5 7.5t-64 -15q-57 -23 -106.5 -62.5t-84.5 -88.5q-33 -47 -49 -102.5t-16 -112t19.5 -110.5t60.5 -97 q4 -4 -0.5 -8.5t-8.5 0.5q-49 41 -76.5 90t-31.5 114q-6 66 13.5 128.5t57.5 115.5q29 41 71 80t92 65.5t103.5 35t106.5 -12.5q57 -23 81 -71t27 -104t-10.5 -115.5t-29.5 -104.5q-47 -127 -129 -231.5t-174 -198.5q-49 -53 -100.5 -104.5t-98.5 -104.5q-43 -49 -85 -104.5 t-54 -120.5q20 39 66 53t89 6q37 -6 90.5 -25.5t104.5 -29t91 5.5t52 78q6 6 6 0q4 -33 -9 -56.5t-37.5 -39t-54.5 -22.5t-56 -5q-39 2 -88 20.5t-97.5 29.5t-91.5 3t-69 -57v-11q0 -6 -5.5 -7t-9.5 3q-23 51 -7 101.5z" />
<glyph unicode="3" horiz-adv-x="694" d="M6 479q8 33 23.5 69t38 65.5t53.5 50t69 20.5q2 0 2.5 -2t-2.5 -2q-45 -12 -78.5 -45t-54 -76t-26.5 -91t4 -91t37.5 -75t64.5 -49t79 -20.5t83 11.5q90 31 139 106.5t62 165.5q4 45 3 93t-16 93q-12 45 -38.5 71t-67.5 42q-47 -6 -88 2q-4 2 -4 7t4 7q47 10 92 23.5 t86 42.5t74 64.5t59 76.5q23 35 49.5 84t43 102.5t15.5 104.5t-32 90q-37 45 -85 47t-95 -19.5t-89 -58t-67 -69.5q-29 -39 -48.5 -84t-25.5 -94q-8 -51 0.5 -97.5t22.5 -93.5q2 -4 -1 -6t-7 0q-31 39 -43.5 87t-9 97.5t19.5 97.5t41 89q20 35 50 68.5t65.5 60t75.5 43 t83 18.5q88 4 139.5 -56t43.5 -146q-8 -92 -52.5 -185.5t-103.5 -163.5q-31 -39 -75 -72.5t-93 -52.5q41 -18 68 -55q29 -41 39 -90t12 -96q4 -92 -27 -180.5t-102 -149.5q-61 -53 -142 -67.5t-155 24.5q-76 39 -102.5 112.5t-10.5 151.5z" />
<glyph unicode="4" horiz-adv-x="690" d="M0 752.5q2 25.5 25 40.5q16 10 36.5 9t36.5 -3q18 -2 37 -4t37 -7q14 10 26.5 22.5t22.5 23.5q63 66 109.5 142.5t81.5 160.5q35 88 56 179t11 187q-2 12 10.5 13.5t16.5 -9.5q14 -51 12 -107.5t-15.5 -111.5t-33.5 -108.5t-41 -100.5q-35 -82 -87 -161.5t-122 -139.5 q33 -10 70 -23.5t73 -17.5l44 13q10 29 20 56.5t23 55.5q31 84 64.5 164t70.5 160t76.5 165t95.5 156q4 6 11 4t3 -10q-29 -80 -70 -155.5t-75 -153.5l-70 -160t-66 -164q-10 -27 -19 -52t-19 -52h4v2h2q53 23 84 68q6 6 6 -3q-10 -45 -40 -70.5t-71 -35.5 q-47 -129 -82 -263t-28 -272q0 -8 -6.5 -8t-10.5 6q-16 39 -19 83t3 87t16 86t23 82q16 47 30.5 94.5t30.5 94.5q-41 -10 -86 5t-86 28q-8 4 -14 5t-14 5q-4 -4 -6.5 -5t-6.5 -5q-31 -20 -76 -36t-81 3q-25 12 -23 37.5zM45 743q10 0 14 2q23 -4 43.5 4.5t40.5 20.5 q-4 0 -7 1t-7 1q-12 4 -27.5 8t-25.5 0q-29 2 -31 -37z" />
<glyph unicode="5" horiz-adv-x="612" d="M6 338q-12 92 29 179t110 145q4 2 7.5 -0.5t-0.5 -6.5q-33 -33 -58.5 -73.5t-41 -85.5t-16.5 -92.5t15 -92.5q20 -53 64.5 -71.5t95.5 12.5q41 27 71.5 65.5t55.5 79.5q47 82 72.5 174.5t25.5 186.5q0 27 -3 56.5t-13 55t-27.5 47t-46.5 31.5t-54.5 2t-47.5 -24 q-18 -12 -43 -29.5t-35 -40.5q0 -4 -4 -16q-2 -4 -6 -3t-4 5q2 86 24.5 174t54.5 168q18 43 40 85t46 83q20 35 44 69.5t59 57.5q4 4 8 0t4 -9q16 2 33.5 -3t34.5 -3q23 0 42 6.5t40 10.5q63 8 110 -41q2 -2 1 -4t-5 0q-23 12 -44 14t-41.5 -2t-41 -10t-45.5 -8 q-23 -2 -48.5 -1t-43.5 17q-14 -33 -35.5 -62.5t-38.5 -60.5q-23 -35 -41 -72t-35 -73q-27 -63 -47 -126t-41 -128q16 16 35 29.5t35 21.5q41 20 84 12t76 -39q37 -35 51 -85t14 -103t-9 -106.5t-21 -96.5q-12 -47 -32 -97t-46.5 -96.5t-60 -85t-76.5 -65.5q-41 -27 -80 -27 t-71 19.5t-52.5 54.5t-26.5 78z" />
<glyph unicode="6" horiz-adv-x="579" d="M4 393q-10 86 4.5 171t36.5 167q23 82 51.5 161t67.5 152q37 74 81 141.5t97 133.5q25 29 50.5 59.5t55 56t63.5 44t75 24.5q6 2 10 -5t-4 -11q-68 -29 -119 -82t-96 -109q-47 -59 -89 -122.5t-77 -129.5q-29 -55 -53.5 -112.5t-44.5 -116.5q16 29 35.5 54.5t48.5 43.5 q49 37 117.5 44.5t121.5 -33.5q29 -23 42.5 -53.5t16.5 -64.5t-2.5 -69t-13.5 -65q-16 -78 -49 -152t-78 -139q-23 -35 -49.5 -65.5t-54.5 -59.5q-23 -23 -47.5 -44.5t-59.5 -18.5q-35 0 -59.5 21.5t-40.5 52t-25.5 64.5t-11.5 62zM43 468q-2 -38 2 -76t16.5 -72.5 t36.5 -61.5q18 -23 39 -24t40.5 9.5t36.5 27t32 32.5q23 25 42 49.5t38 53.5q75 112 112 245q8 31 15.5 68t5.5 71.5t-15.5 66.5t-46.5 50q-55 33 -118.5 16.5t-104.5 -59.5q-35 -35 -56.5 -77t-37.5 -89q-20 -76 -31 -157q-4 -35 -6 -73z" />
<glyph unicode="7" horiz-adv-x="522" d="M6 195q-8 43 3 90t22 88q20 98 55 190q25 78 54.5 153t64.5 146h-33q-16 0 -19 16.5t13 22.5q35 10 63 10q0 2 4 11q47 92 95.5 181t101.5 177q33 53 71 109.5t93 89.5q-55 4 -110.5 -11.5t-110.5 -23.5q-41 -4 -86 0t-78 35q-8 8 -1 15t15 3q61 -29 115.5 -22.5 t116.5 20.5q45 10 86 12t82 -16q8 4 14 6q14 4 20.5 -11.5t-8.5 -23.5q-37 -20 -66.5 -50t-54 -63.5t-45 -71.5t-41.5 -75q-43 -72 -82.5 -146.5t-78.5 -150.5q35 -6 59 -20q4 -2 3 -4t-3 -2q-18 -4 -37.5 -6.5t-40.5 -4.5q-41 -84 -76.5 -169t-64.5 -173q-27 -78 -49 -164 q-10 -41 -17.5 -87t-25.5 -82q-4 -8 -12.5 -7.5t-10.5 9.5z" />
<glyph unicode="8" horiz-adv-x="577" d="M12 516q4 68 24.5 133.5t55.5 122.5t85 103.5t112 74.5q4 2 8 -2t0 -8q-66 -49 -119 -117.5t-86 -146.5t-38 -162t28 -166q18 -47 56 -82t91 -37q45 0 74 29t45 68q31 82 24 174t-18 176q-12 80 -25.5 162t-20.5 164.5t-3 164.5t31 162q8 27 21.5 56.5t31 56t41 45 t53.5 24.5q39 6 61.5 -7t35 -36.5t16.5 -54t4 -59.5q0 -170 -60.5 -322.5t-156.5 -290.5q14 -84 23.5 -166.5t-0.5 -168.5q-6 -57 -30 -115t-77 -86q-55 -29 -115.5 -10.5t-99.5 65.5q-45 53 -60.5 122t-11.5 134zM344 1114q-2 -88 10.5 -175t26.5 -173q43 86 81 176t64 182 q14 51 22.5 101.5t10.5 101.5q2 25 3 53.5t-7 51.5q-14 45 -51 41.5t-64 -29.5q-29 -31 -47 -71t-29.5 -84t-15.5 -90t-4 -85z" />
<glyph unicode="9" horiz-adv-x="442" d="M0 185q-4 5 0 10q45 49 83 99t73 107q33 53 60.5 107.5t51.5 112.5q45 109 81 221t59 229q10 66 14 131.5t-2 130.5q-4 29 -8 58.5t-21 52.5q-23 33 -55.5 31t-63.5 -19q-45 -23 -77.5 -58.5t-55 -79.5t-38 -92t-23.5 -93q-10 -59 -11 -122t27 -118q12 -25 32.5 -46.5 t46.5 -36.5t53.5 -20.5t56.5 1.5q6 2 8 -3.5t-2 -7.5q-59 -29 -113.5 -12.5t-95.5 63.5q-47 55 -54.5 128t3.5 141q6 55 22.5 112.5t42 108.5t63.5 94t91 70q45 23 90 23.5t80 -42.5q37 -49 43 -119.5t6 -129.5q-4 -154 -49 -307.5t-105 -295.5q-49 -123 -120.5 -238.5 t-184.5 -191.5q-4 -4 -8 1z" />
<glyph unicode=":" horiz-adv-x="274" d="M98 608q0 16 13 23q6 8 18 8q12 2 19.5 -8t9.5 -23q0 -14 -9.5 -23.5t-19.5 -9.5t-18 9q-12 8 -13 24zM160 928q0 16 12 22q6 8 18 8q12 2 19.5 -8t9.5 -22q0 -14 -9 -23.5t-20 -9.5q-10 0 -18 8q-12 8 -12 25z" />
<glyph unicode=";" horiz-adv-x="294" d="M84 621q-2 12 7 21t20 9h2q6 4 14 3t12 -11q8 -16 10.5 -36.5t-4 -39t-19.5 -31t-34 -10.5q-4 0 -6 4.5t2 8.5q16 20 21 49q-25 4 -25 33zM154 936q0 16 12 22q6 9 18 9q12 2 19.5 -8.5t9.5 -22.5q0 -14 -9 -23.5t-20 -9.5q-10 0 -18 8q-12 8 -12 25z" />
<glyph unicode="&#x3c;" horiz-adv-x="487" d="M8 702q39 72 98.5 127.5t112.5 110.5q59 61 118 122.5t116 127.5q4 4 10 0t2 -10q-47 -78 -96.5 -150t-106.5 -137q-45 -53 -93 -106.5t-106 -88.5q33 -16 58.5 -56t44.5 -67q33 -47 58.5 -96t41.5 -104q2 -8 -4 -11.5t-10 3.5q-41 41 -76 90l-70 98q-18 29 -45.5 60.5 t-31.5 66.5q-2 0 -4 -2q-10 -4 -15.5 5t-1.5 17z" />
<glyph unicode="=" horiz-adv-x="806" d="M50 646q-1 5 9 7q76 10 154 10.5t156 4.5q86 4 170 5t170 -3q6 0 7 -4t-5 -7q-74 -16 -157 -26t-168 -14.5t-169 0t-158 20.5q-8 2 -9 7zM86 756q0 4 6 4q82 16 167 17t169 5q86 2 169 3t167 -13q6 0 6 -4t-6 -6q-82 -16 -166 -17.5t-170 -3.5q-84 -2 -168 -2t-168 11 q-6 2 -6 6z" />
<glyph unicode="&#x3e;" horiz-adv-x="522" d="M25 377q41 72 103 123t124 100q45 37 99.5 86t113.5 70q-29 35 -53.5 76.5t-46.5 82.5q-35 59 -68 120t-57 128q-4 10 5 14.5t13 -1.5q43 -49 78 -103.5t70 -111.5q29 -47 58.5 -95.5t45.5 -101.5q2 -2 2 -6q2 -8 3 -16.5t3 -16.5q2 -4 -2 -9t-8 -1q-6 6 -14 10 q-35 -53 -94.5 -96t-104.5 -82q-61 -51 -122.5 -106.5t-133.5 -84.5q-8 -4 -13.5 4.5t-0.5 16.5z" />
<glyph unicode="?" horiz-adv-x="583" d="M33 1065q-4 45 7 90t34 80q25 37 59.5 67.5t75.5 47t84 18.5t84 -16q70 -31 103.5 -109t29.5 -158q-4 -104 -55.5 -193t-116.5 -159q-41 -45 -83 -85t-81 -85q-20 -23 -39.5 -48.5t-31 -53t-11.5 -57t19 -62.5q4 -4 1 -8t-8 0q-39 31 -43 71.5t11.5 81.5t43 79t50.5 63 q39 43 82 83t84 83t75.5 91t57.5 107q20 57 17 123t-28.5 119t-71.5 82t-112 14q-35 -8 -71.5 -31.5t-66.5 -56.5t-50.5 -71.5t-24.5 -79.5t12.5 -79t59.5 -69q4 -4 2 -9t-6 -3q-43 16 -65.5 52t-26.5 81zM57 248q0 14 9 20q8 16 24 8q10 -6 14 -10q6 -6 7 -18q0 -10 -7 -19 q-4 -4 -7 -5t-7 -3q-16 -8 -24 6q-8 8 -9 21z" />
<glyph unicode="@" horiz-adv-x="870" d="M35 677q10 87 40.5 170t76.5 148q45 63 106 110.5t131 69t141.5 12t137.5 -56.5t90 -120.5t18 -154.5t-37.5 -159t-76.5 -133q-16 -23 -41 -41t-51.5 -26.5t-51 0t-43.5 43.5q-20 41 -20 100q-23 -53 -49 -98q-18 -33 -47 -56.5t-64 -17.5q-43 8 -62.5 45t-22.5 84t5 95 t18 79q12 39 34 84t52.5 82t68.5 57.5t83 7.5q66 -18 73 -74.5t-16 -117.5q6 4 11.5 -4t1.5 -14q-16 -39 -30.5 -74t-16.5 -80q0 -16 1 -33.5t5 -34.5q16 -47 44.5 -47t57.5 19q55 39 90 112.5t47 141.5q12 72 5 147.5t-60 126.5q-47 45 -106.5 63.5t-118.5 12.5 q-117 -10 -206 -93t-134 -200q-25 -59 -39 -129t-13 -138.5t19 -134t61 -116.5q39 -47 92.5 -72.5t108.5 -13.5q57 10 101.5 48t60.5 101q2 8 7 6t5 -8q-10 -78 -60 -132t-120 -64q-76 -10 -141.5 35t-106.5 112q-43 72 -56 158t-3 173zM250 588q0 -31 11 -53.5t28.5 -32.5 t39.5 -6.5t42 28.5q23 27 39 58.5t29.5 66.5t25.5 70t27 65q2 8 10 4q8 31 12 64t-3 57.5t-26.5 36.5t-56.5 4q-31 -6 -56.5 -30.5t-45 -56.5t-33.5 -66.5t-23 -65.5q-10 -35 -16 -71.5t-4 -71.5z" />
<glyph unicode="A" horiz-adv-x="1796" d="M4 160q-1 13 -1 26q-1 60 15 116q18 68 54.5 127.5t87.5 111t110 90.5q-4 8 -6 16t-6 17q-20 74 -20 146q0 75 22 147q43 141 140.5 251.5t233.5 179t281 76.5q20 1 40 1q69 0 137 -11q88 -14 174 -37.5t172 -49.5t174 -44q20 -4 41.5 -7t44.5 -7q10 10 14 16 q59 59 125 109.5t143 74.5l7 7q6 6 6 -3q4 0 5 1.5t5 1.5q24 17 52 17q6 0 11 -1q29 -4 48.5 -22.5t25.5 -45.5q3 -15 3 -28q0 -20 -6 -36q-11 -28 -32.5 -49.5t-51.5 -36t-58 -22.5q-47 -14 -94.5 -20t-94.5 -8q-23 -41 -44 -81t-42 -83q-53 -111 -97 -225.5t-81 -231.5 q-10 -39 -24.5 -95t-24.5 -95q43 -16 93 -28.5t96.5 -20t82 -9.5t47.5 2q6 2 8.5 -3t-1.5 -9q-14 -8 -51 -9h-15q-31 0 -69 3q-48 4 -100 13t-97 24q-17 -83 -16 -148q0 -62 14 -139q10 -59 29.5 -122.5t60.5 -110.5q18 -25 46 -41.5t56.5 -20.5t57 6t51.5 37q4 4 7 1t1 -7 q-20 -35 -56 -51q-29 -13 -61 -14q-8 0 -16 1q-47 4 -84 31t-64 66q-37 53 -58 118.5t-29 133.5q-7 55 -7 113v27q2 71 15 136q-61 25 -96 40t-60 25.5t-44.5 18.5t-49.5 23q-51 -82 -102.5 -162t-104.5 -158q-70 -100 -147 -203.5t-177 -175.5q-99 -68 -209 -70 q-6 0 -11 -1q-103 0 -195 45q-96 47 -162 137t-72 209zM40 266q-9 -41 -9 -82q0 -80 35 -157q27 -59 71.5 -104.5t100.5 -72.5q54 -28 118 -38q25 -4 50 -4q39 0 77 10q63 14 117.5 49t99.5 80t85 97t77 101q76 100 144.5 204t134.5 210q-2 0 -3 1t-3 1q-66 31 -132.5 60.5 t-135 53t-139.5 35.5q-47 8 -94 7q-25 0 -50 -2q-74 -6 -144.5 -29.5t-134.5 -60.5q45 -111 141.5 -184.5t219.5 -86.5q6 0 6 -5t-6 -7q-11 -1 -22 -1q-54 1 -102 17q-58 20 -109.5 56.5t-90.5 86.5t-63 107q-37 -27 -71 -56.5t-63 -64.5q-78 -99 -105 -221zM274 772 q0 -63 23 -125q68 41 143.5 64.5t151.5 31.5q30 2 60 2q98 -1 192 -25q123 -32 239 -83q23 -10 42.5 -18.5t41.5 -18.5q59 90 116.5 179t119.5 177q59 84 122.5 162t135.5 154q-90 10 -176 30.5t-172 43.5q-88 23 -176 39q-87 16 -175 17h-9q-83 0 -165 -18 q-86 -18 -170 -61q-76 -41 -139 -98.5t-109 -129t-72 -153.5q-24 -76 -24 -157v-13zM1210 582q18 -10 48 -23.5t64 -29t65.5 -30t54.5 -24.5q16 76 41.5 158.5t54.5 154.5q39 104 83 206t101 198q18 33 45 72q-16 0 -31.5 1t-31.5 3q-29 -31 -53.5 -60.5t-46.5 -58.5 q-94 -117 -177.5 -239t-162.5 -246q-14 -23 -26.5 -42.5t-27.5 -39.5zM1737 1303q14 -2 26.5 -2.5t26.5 -2.5q61 90 131 160q-53 -29 -98 -69.5t-86 -85.5zM1829 1298q37 0 75 5.5t74 15.5q41 12 82 34.5t51 69.5q6 31 -11 56.5t-52 25.5q-6 0 -23 -4q-6 0 -14 -4 q-12 -4 -24.5 -10t-22.5 -10q-35 -41 -66.5 -81t-60.5 -85q-4 -4 -8 -13z" />
<glyph unicode="B" horiz-adv-x="2131" d="M5 102q5 64 39 119t89 97t115 63q68 24 139 24q5 -1 9 -1q76 -2 149 -19.5t144 -48.5t132 -68q66 -37 126.5 -82t118.5 -91t117.5 -92t123.5 -85q35 -23 74.5 -43t82.5 -32.5t87 -12.5t85 20q59 29 88 87.5t29 119.5q0 72 -35 128.5t-94 93.5q-45 29 -91 43t-95 22 q-43 0 -86 6q-10 2 -9.5 11.5t11.5 11.5h20t21 2q10 2 20 3t21 1q78 10 150.5 35.5t144.5 70.5q78 49 144.5 113t127.5 131q51 59 104.5 126t97.5 139.5t73.5 150.5t35.5 160v13q0 36 -9 73q-11 43 -52 67q-35 23 -75 24h-6q-37 0 -69 -12q-76 -27 -140.5 -83t-121.5 -109 q-117 -109 -212 -231.5t-173 -260.5q-39 -68 -71.5 -137t-61.5 -141q-16 -41 -29.5 -83t-21.5 -84q-7 -37 -8 -75q0 -5 1 -10q1 -43 15 -86q2 -2 -4 -8q4 -4 1 -7t-7 1q-46 43 -54 100q-3 23 -4 47q0 35 7 70q12 84 38.5 161.5t59.5 155.5q29 72 58.5 140.5t58.5 140.5 q12 31 24 65.5t18 70.5q3 21 3 41q0 16 -2 30q-4 34 -23 65q-38 57 -98 73q-37 9 -76 9q-26 0 -52 -4q-68 -10 -133 -35.5t-110 -52.5q-117 -72 -208 -180.5t-126 -243.5q-12 -48 -12 -95q0 -33 6 -65q14 -78 68 -143q43 -51 99 -87t116 -65q4 -2 3 -5t-5 -1 q-70 25 -133.5 63t-110.5 97q-52 68 -64 148q-4 28 -5 56q0 52 14 105q31 135 120 253t205 192q49 31 110.5 58.5t125.5 41.5q45 10 90 10q18 0 38 -2q64 -6 120 -41q68 -45 84 -109q8 -34 9 -70q1 -32 -7 -66q-14 -72 -45 -143t-56 -126q-12 -29 -25.5 -57.5t-25.5 -57.5 q25 51 51.5 101.5t57.5 97.5q96 152 214.5 285t260.5 243q31 23 63.5 44.5t69.5 34t75 15.5h13l63 -12q39 -12 64 -37.5t38 -58.5t16 -71q1 -12 1 -24q0 -25 -4 -50q-12 -90 -47 -174t-84 -162t-109.5 -148.5t-121.5 -134.5q-86 -92 -198 -172t-237 -115q88 -27 156 -91 t86 -152q6 -31 6 -61q0 -28 -5 -54q-11 -56 -40.5 -101.5t-77 -75.5t-110.5 -34h-18q-67 1 -129 27q-70 30 -132 69q-68 43 -130 91.5t-126 95.5q-63 47 -127.5 92t-134.5 80q-80 39 -168 59.5t-176 24.5q-18 1 -37 1q-57 1 -119 -9q-80 -12 -147 -58q-33 -23 -56.5 -56.5 t-33.5 -72.5q-8 -30 -8 -61q0 -9 1 -18q3 -40 23 -76q4 -4 -1 -7.5t-9 0.5q-39 56 -39 114q0 6 1 13z" />
<glyph unicode="C" horiz-adv-x="1302" d="M4 1056q16 66 58 121.5t101.5 96.5t125.5 61q86 29 174 29h21q100 -4 192 -41q74 70 160 129t184 82q30 7 63 6q16 0 33 -1q51 -5 92 -27q40 -21 66 -59q24 -35 24 -85v-8q-4 -49 -21 -95t-44 -89t-59.5 -83t-63.5 -73q-2 -2 -2 -4v-2v-4q-20 -23 -43 -45.5t-47 -42.5 q6 -34 6 -67q0 -23 -3 -45q-7 -56 -38 -110q-4 -4 -9 -2t-3 9q16 45 17 92v9q0 43 -9 85q-35 -29 -74 -51.5t-76 -40.5q-78 -41 -163.5 -67.5t-173.5 -39.5q-48 -6 -94 -6q-28 0 -56 2q-23 -76 -37 -153.5t-18 -155.5q-1 -15 -1 -31q0 -90 20 -178q24 -104 95 -186 q66 -80 159 -110q57 -18 118 -19q38 0 78 8q104 18 186 73.5t146.5 130t119 162.5t103.5 172q6 10 14 4t4 -16q-51 -102 -120.5 -212.5t-160 -199t-202.5 -139.5q-82 -38 -176 -38q-33 0 -68 5q-104 14 -184 77t-127 155q-55 109 -63 229q-2 37 -2 72q0 82 12 164 q6 49 17.5 98t25.5 98q-90 18 -164 68.5t-105 146.5q-14 44 -14 86q0 28 6 55zM43 948q10 -66 66 -123q39 -41 85 -63.5t97 -32.5q53 160 143 301t207 260q-93 33 -193 33h-12q-107 -2 -203 -49q-61 -31 -109 -83q-48 -53 -70 -115q-15 -43 -14 -86q0 -21 3 -42zM352 721 q19 -1 38 -1q57 0 115 9q77 12 144 33q131 37 250 106q12 6 23.5 13.5t21.5 13.5q8 6 15.5 12t13.5 13q-25 94 -82 175t-131 132q-27 20 -60 37q-84 -80 -145 -166q-131 -172 -203 -377zM735 1296q66 -37 115 -82q53 -51 96 -117.5t64 -142.5q23 23 44 48.5t42 50.5 q33 41 60.5 87t47.5 93q10 23 20.5 49.5t14.5 53t0 52t-22 48.5q-37 43 -89 48q-13 1 -26 1q-40 1 -81 -11q-54 -16 -105.5 -45.5t-86.5 -54.5q-25 -18 -48 -37.5t-46 -40.5z" />
<glyph unicode="D" horiz-adv-x="1536" d="M7 32q-3 3 1 7q33 33 75 51.5t87 23.5q15 2 29 2l61 -8q45 -10 84 -30q49 -27 92 -69t88 -81q46 -38 96 -64q44 -22 95 -23q8 0 16 1q55 4 104.5 30t90.5 63.5t75.5 82.5t63.5 88q57 86 105.5 177.5t95.5 183.5q100 209 178 420q20 53 38.5 108.5t35.5 110.5 q16 53 31.5 109.5t17.5 113.5q0 31 -7.5 64.5t-24.5 57.5t-44 29q-4 1 -9 1q-24 0 -55 -23q-39 -29 -71.5 -62.5t-63.5 -68.5q-72 -80 -135 -165t-121 -175q-57 -88 -107 -179t-98 -183q-53 -104 -94 -213q-37 -99 -37 -209v-21v-2l13 -18q4 -4 0 -7t-6 1q-47 43 -55 100 q-3 24 -3 49q0 33 6 68q12 84 39 161.5t58 155.5q29 72 59.5 140.5t58.5 140.5q12 31 24 65q12 35 18 71q3 20 4 39q0 16 -2 32q-4 34 -23 65q-37 57 -97 73q-37 9 -77 9q-25 0 -51 -4q-68 -10 -133.5 -35.5t-110.5 -52.5q-117 -72 -208 -180.5t-126 -243.5q-12 -48 -12 -95 q0 -33 6 -65q14 -78 68 -143q43 -51 99 -87t116 -65q4 -2 2 -5t-5 -1q-70 25 -133 63t-110 97q-53 68 -65 148q-4 31 -4 62q0 49 11 99q33 135 121 253t207 192q49 31 111 58q62 28 126 42q45 10 89 10q19 0 39 -2q64 -6 118 -41q68 -45 84 -109q9 -34 10 -71q0 -31 -8 -65 q-14 -72 -44.5 -143t-55.5 -126q-37 -82 -71.5 -163t-63.5 -167q-17 -57 -35 -123q-11 -40 -11 -80q0 -25 5 -49v16q0 49 10 97q12 56 31.5 109t44.5 105t49 102q57 117 122 227t136 217q131 190 289 348q28 28 64 54q26 18 56 19q12 0 25 -3q37 -8 59.5 -37t33.5 -64 q15 -47 15 -98v-17q-3 -60 -17.5 -121t-36 -119t-39.5 -112q-78 -227 -185 -450q-49 -109 -105 -214.5t-122 -203.5q-57 -84 -133 -159.5t-176 -108.5q-39 -12 -74 -12q-13 0 -25 2q-46 6 -89.5 25.5t-83 48t-78.5 59.5q-45 33 -99 67t-112 54q-48 16 -97 17q-9 0 -19 -1 q-58 -4 -112 -47q-4 -4 -7 -1z" />
<glyph unicode="E" horiz-adv-x="1468" d="M-1 660q3 78 34 149q8 16 16 32.5t19 32.5v5q43 66 104 115.5t133 82.5q2 2 4 2t4 2q2 0 3 1t3 1q8 4 15 7q4 2 6 2t6 2h2q78 29 163 35q20 1 41 1q64 0 126 -14q23 -4 42 -10t42 -12q78 123 190.5 219t243.5 149q37 14 86 30q48 18 100 26q29 5 58 4q21 0 42 -2 q48 -6 85 -35q39 -31 52 -71q9 -27 9 -56q0 -13 -2 -26q-6 -42 -25.5 -83t-46.5 -71q-61 -74 -141 -117t-169 -59q-72 -13 -146 -14q-18 0 -36 1q-93 4 -181 27q-23 4 -42.5 10t-41.5 12q-16 -29 -31.5 -59.5t-28.5 -63.5q-14 -41 -26.5 -92t-12.5 -102t17.5 -97t60.5 -75 q8 -4 15.5 -8t15.5 -9q8 10 16 21.5t19 21.5q12 14 34.5 37t51 45.5t59.5 42t60.5 27.5t55 0t44.5 -39q4 -10 -2 -16q-8 -8 -21 -25q-54 -74 -128 -123q-58 -38 -127 -38q-20 0 -40 3q-16 -25 -31.5 -49t-27.5 -51q-25 -51 -43 -111q-17 -58 -25 -120q-4 -31 -4 -61.5 t4 -60.5q8 -60 35 -112q39 -72 97 -88q28 -8 57 -8q31 0 63 8q62 16 120.5 56t101.5 81q96 94 162.5 205t129.5 228q4 6 11.5 3t5.5 -10q-51 -131 -128 -251.5t-179 -219.5q-37 -37 -85.5 -71.5t-100.5 -55t-108 -21.5h-3q-54 0 -103 30q-45 27 -71.5 67.5t-40 89.5 t-14.5 101v15q0 44 5 85q10 90 43 174t84 158q-55 18 -85.5 57t-42.5 88q-11 42 -11 89v14q2 54 14 104q25 106 80 203q-77 23 -153 35q-31 5 -64 5q-46 0 -94 -10q-74 -14 -141 -47q-4 -4 -8.5 -5t-8.5 -5q-123 -72 -186 -201q-33 -67 -40 -141q-2 -20 -2 -40 q0 -52 14 -102q18 -68 65 -122.5t121 -83.5q4 -2 4 -5t-4 -1q-86 12 -140 62t-80 119q-23 62 -23 131v16zM817 1073q57 -20 114.5 -37.5t119.5 -21.5q31 -3 63 -3l109 9q86 14 163 55q39 20 79 50t71 69t47 83q11 29 11 60q0 15 -3 31q-12 56 -52 78q-38 21 -86 21h-4 q-50 -1 -102.5 -15.5t-91.5 -26.5q-131 -47 -245.5 -139t-192.5 -213zM852 520q13 -2 26 -2q33 0 66 12q45 16 86 43q25 25 47.5 49.5t38.5 55.5q-23 20 -51.5 14t-58 -24.5t-55.5 -42t-40 -37.5q-16 -16 -30.5 -33.5t-28.5 -34.5z" />
<glyph unicode="F" horiz-adv-x="980" d="M2 1182q55 53 131 57h18q66 0 125 -25q45 29 87.5 57.5t76.5 51.5q98 57 203 102t215 74q100 27 215 39q34 4 68 4q78 0 149 -20q35 -10 70 -34t56.5 -55.5t25.5 -69.5q1 -5 1 -10q0 -33 -22 -65q-2 -2 -4 -2t0 4q9 23 9 44q0 36 -25 64q-39 46 -96 60q-47 12 -99 16 q-33 2 -64 2q-18 0 -36 -1q-109 -4 -213.5 -28t-204.5 -61q-100 -39 -194.5 -87t-188.5 -99q80 -41 136.5 -111.5t90.5 -152.5q46 -108 54 -220q2 -36 2 -72q0 -76 -10 -152l12 30q47 111 98 218.5t103 217.5q20 45 43.5 98.5t37.5 107.5q10 39 9 77q1 15 -1 30 q-6 52 -40 99q-4 4 0 7t8 -1q29 -31 41 -67.5t13 -76.5v-10q0 -35 -6 -70q-7 -40 -19 -79q-33 -104 -76 -203.5t-88 -197.5q-23 -47 -42.5 -95.5t-39.5 -95.5q10 4 21.5 6t21.5 5q23 6 49.5 6t50 -7.5t39.5 -24.5t18 -48q0 -10 -8 -10t-12 8q-8 23 -29.5 31t-49 7 t-59.5 -8.5t-63 -15.5q-20 -49 -36.5 -98t-32.5 -101q-16 -55 -30.5 -111.5t-18.5 -115.5q-1 -12 -1 -23q0 -40 11 -77q10 -31 25.5 -49.5t39.5 -38.5q2 -2 1 -5.5t-5 -3.5q-35 4 -66.5 31t-47.5 60q-21 41 -21 86v8q2 49 12 96q16 74 38 143.5t50 139.5l7 37h-11 q-17 -2 -34 -2q-40 0 -78 13q-56 19 -95 60q-2 4 0 7t7 -1q43 -45 100 -46h6q54 0 111 16q8 69 8 139q0 28 -1 58q-5 100 -36 198q-49 160 -176 274q-37 31 -76 52q-61 -28 -128 -42q-17 -3 -33 -4q-49 0 -93 31q-14 10 -4 21zM35 1176q36 -21 74 -21q11 0 22 2q49 8 98 33 q-46 17 -95 17h-5q-51 -1 -94 -31z" />
<glyph unicode="G" horiz-adv-x="1728" d="M4 637q0 41 18.5 79t51 66.5t71.5 42.5q71 26 147 26q28 0 57 -4q106 -13 204 -36q10 -4 18.5 -5t16.5 -3q43 135 119.5 257t175.5 222q53 53 118.5 107.5t139 93.5t153.5 56q39 8 78 8l82 -9q72 -16 127 -64.5t76 -119.5q13 -41 13 -83q0 -32 -8 -65q-17 -76 -48 -141 q-41 -92 -110.5 -178t-164.5 -133q-74 -43 -157 -62q-65 -14 -130 -14q-42 0 -83 6q-107 14 -211 41q-29 6 -57.5 13t-57.5 14q-29 -97 -29 -198v-24q4 -114 78 -206q49 -63 120 -93q46 -20 97 -20q27 0 56 6q78 16 144.5 61.5t125.5 98.5q0 8 1 16t1 17q2 20 5 58t14.5 74 t31 59.5t55.5 16.5q35 -6 43.5 -31.5t1 -55t-22.5 -58.5t-28 -43q-29 -41 -71 -80q-4 -53 -6.5 -106.5t-8.5 -106.5q14 4 26.5 10.5t27.5 10.5q59 25 116.5 51.5t114.5 54.5q55 29 110.5 61.5t100.5 80.5q4 4 10 -0.5t2 -10.5q-45 -59 -109.5 -100t-129.5 -74 q-66 -31 -134.5 -61.5t-138.5 -53.5q-10 -66 -33.5 -129t-60.5 -115t-90 -89t-125 -47q-22 -4 -43 -4q-37 0 -71 11q-56 17 -93 66q-29 40 -29 83v12q5 49 46 86q47 43 109.5 58t121.5 28q59 12 116.5 25t114.5 32q8 49 12.5 98t8.5 96q-35 -29 -73 -54t-75 -48 q-66 -35 -141 -49q-28 -5 -56 -5q-47 0 -93 15q-80 27 -131.5 83t-78 128t-31.5 153q-1 21 -1 42q0 58 10 112q4 18 8 37t9 35q-70 14 -140 24q-50 6 -101 6q-22 0 -44 -1q-45 -2 -100.5 -16.5t-98.5 -43t-64 -73.5q-9 -20 -9 -43q0 -28 14 -60q2 -2 -1 -3t-3 1 q-27 39 -27 80zM653 786q92 -25 185.5 -46t189.5 -25q13 -1 26 -1q78 0 151 22q85 24 157 71t127 114.5t90 147.5q27 72 35 137q2 17 2 34q0 70 -34 131q-42 75 -132 97q-41 11 -82 11q-50 0 -98 -17q-88 -30 -164 -82q-127 -84 -227 -199.5t-166 -250.5q-35 -70 -60 -144z M736 -126q5 -26 28 -50q35 -35 85 -47q27 -7 54 -7q22 0 43 5q61 12 105.5 41.5t75 72.5t49 95.5t28.5 109.5q-49 -12 -99 -19t-100.5 -15.5t-98.5 -21.5t-93 -36q-27 -14 -46 -34.5t-27.5 -44t-3.5 -49.5zM1270 410q27 27 49 56.5t33 63.5q2 6 3 15.5t-1 17.5t-9.5 13.5 t-21.5 3.5q-8 -2 -15.5 -13.5t-11.5 -19.5q-10 -18 -13 -41t-7 -45q-2 -12 -3 -25.5t-3 -25.5z" />
<glyph unicode="H" horiz-adv-x="1187" d="M0 338q-2 8 8 16q33 23 66 23q16 1 34 -5q52 -18 95 -55q47 12 100 31t105 41q47 143 103 282.5t110 280.5q10 31 30.5 81t38 109.5t27.5 121.5q6 36 6 68q0 22 -3 42q-7 49 -38 79t-96 30q-80 0 -152 -36t-132 -91.5t-107.5 -124t-75.5 -135.5q-31 -70 -40 -151 q-4 -33 -4 -66q0 -47 8 -93q13 -78 52 -146.5t107 -115.5q4 -4 1 -10t-10 -2q-78 35 -128 98.5t-70 143.5q-11 49 -11 96q0 40 8 78q17 84 54 166q31 68 76 133t100 120.5t122 96.5t140 61q36 9 73 9q27 0 55 -5q65 -12 96 -79q14 -31 17 -64q2 -16 2 -33t-2 -33 q-3 -34 -10 -67t-16 -64q-47 -184 -114.5 -358t-130.5 -352q-4 -10 -6.5 -19.5t-6.5 -19.5q41 18 71 31.5t42 19.5q53 20 112.5 38.5t118.5 25.5q20 92 49 183t64 177q43 104 92 206.5t111 196.5q51 74 118.5 137.5t159.5 84.5q4 0 7.5 -5.5t-3.5 -9.5q-55 -25 -99 -61.5 t-81 -81.5t-67.5 -96.5t-57.5 -102.5q-63 -117 -111.5 -240.5t-84.5 -252.5q-10 -33 -18.5 -66t-16.5 -67q25 -2 49.5 -11.5t41.5 -25t25.5 -38t-2.5 -50.5q-2 -10 -10 -9.5t-12 9.5q-12 37 -41 53t-64 20q-18 -88 -24 -175q-2 -24 -1 -47q0 -63 11 -126q10 -55 35 -108.5 t61.5 -98.5t83.5 -77.5t105 -45.5q6 -2 4 -7t-8 -5q-100 14 -175 76.5t-116 155.5q-45 97 -50 205q-1 28 -1 57q0 79 10 155l6 37q-37 -4 -72.5 -14t-64.5 -18q-55 -16 -107.5 -37t-105.5 -41q-43 -135 -74 -267q-8 -41 -16 -81.5t-8 -80.5t11 -78t42 -71q4 -4 0 -10t-10 -2 q-29 14 -46.5 37.5t-26.5 52.5t-12 60.5t-3 60.5v24q-16 90 -64 168q-16 27 -37.5 53.5t-48.5 49.5q-10 -2 -20.5 -3t-20.5 -3q-11 -1 -22 -1q-28 0 -55 7q-38 10 -54 51zM33 332q10 -23 41 -29q13 -3 29 -2q21 0 47 4q-27 16 -55.5 24.5t-61.5 2.5zM223 297q25 -25 45 -55 q41 -55 64 -131q10 55 24.5 109.5t30.5 107.5q2 4 3 8t3 8q-41 -14 -84 -25.5t-86 -21.5z" />
<glyph unicode="I" horiz-adv-x="677" d="M0 834v10q0 83 30 162q32 84 74 157q33 57 73 116.5t89 110t108.5 87t127.5 53.5q29 7 56 7q35 1 66 -11q56 -20 85 -84q16 -35 19 -73q1 -15 2 -29q0 -24 -4 -47q-5 -38 -15.5 -74.5t-18.5 -71.5q-47 -174 -106.5 -342t-112.5 -340q-27 -86 -47 -171t-37 -171 q-8 -45 -10 -92q0 -9 -1 -19q0 -37 7 -71q8 -43 30.5 -81t65.5 -65q4 -4 2 -7t-6 -3q-66 10 -103.5 64.5t-45.5 115.5q-4 31 -4 62q0 53 11 107q17 85 38 167q37 154 89 303.5t105 300.5q27 76 50.5 152t46.5 153q8 37 16 84q5 27 5 53q0 19 -3 39q-6 46 -31.5 77.5 t-81.5 37.5q-10 1 -20 1q-63 0 -125 -32q-72 -38 -123 -88q-53 -47 -93 -105t-75 -120q-41 -73 -63 -149q-19 -65 -19 -135v-25q4 -66 23.5 -141.5t66.5 -126.5q4 -4 -1 -9.5t-9 -1.5q-29 25 -56.5 52.5t-43.5 64.5q-14 35 -22.5 73t-8.5 75z" />
<glyph unicode="J" horiz-adv-x="1411" d="M4 199q4 68 30.5 129t71.5 112q51 57 117 91t137 45q38 7 76 7q35 0 70 -5q74 -11 143 -37q49 -20 95.5 -48t89.5 -59t86 -63.5t90 -59.5q68 135 119 275.5t85 287.5q20 80 34 161t18 163q0 37 -2 79t-12.5 79t-34 66.5t-66.5 41.5q-30 9 -61 9q-34 0 -70 -11 q-68 -20 -123 -49q-61 -33 -115.5 -76t-95.5 -100q-41 -55 -60 -119q-17 -55 -17 -110v-16q3 -64 30 -124.5t80 -105.5q4 -2 2 -5t-6 -1q-63 39 -95 101.5t-38 132.5q-2 18 -2 36q0 51 14 104q18 70 55 127q47 68 109.5 119t134.5 88q63 33 138 52q32 7 63 7q43 0 84 -14 q68 -23 98.5 -80t38.5 -124q5 -46 5 -93q0 -42 -4 -84q-9 -88 -26 -174q-35 -174 -93 -342t-138 -327q53 -27 109 -32q12 -1 23 -1q46 0 93 16q49 16 78.5 52t62.5 73q2 2 3.5 1t-1.5 -3q-23 -33 -42 -67.5t-54 -59.5q-39 -29 -94 -37q-31 -5 -60 -5q-22 0 -42 3 q-45 6 -91 29q-35 -70 -75.5 -140.5t-90 -134t-109.5 -115.5t-136 -85q-88 -38 -172 -38q-57 0 -113 17q-137 43 -235 164q-47 59 -80 129q-29 62 -29 131v17zM68 156q8 -68 45 -131q39 -66 93 -116t118.5 -78t135.5 -29h5q69 0 141 30q70 31 127.5 80t104.5 109.5t85 127 t72 132.5v2q-18 12 -39 22q-49 31 -98 62.5t-98 64.5q-55 37 -118.5 62.5t-130.5 35.5q-37 6 -74 6q-30 0 -61 -4q-67 -8 -128 -40q-66 -35 -109 -88.5t-61 -117.5q-13 -43 -13 -88q0 -21 3 -42z" />
<glyph unicode="K" horiz-adv-x="1046" d="M8 935q19 85 55 165q31 68 76 133t100.5 120.5t122 96.5t140.5 61q37 10 73 10q27 0 53 -5q64 -13 95 -78q22 -46 22 -97q-1 -17 -3 -34q-10 -70 -25 -131q-47 -180 -113.5 -353.5t-128.5 -347.5q16 18 32.5 35.5t29.5 32.5q88 96 162.5 197.5t152.5 203.5 q74 98 151.5 193.5t163.5 181.5q37 37 80 72.5t92.5 62.5t101.5 39q26 6 52.5 6t52.5 -6q8 -2 6 -9t-8 -7q-72 -4 -131 -32t-110.5 -69t-97.5 -91t-89 -99q-88 -98 -168 -200.5t-164 -205.5q-78 -96 -158.5 -189t-172.5 -179q-18 -53 -35 -108.5t-31 -110.5 q66 -70 134.5 -136.5t146.5 -119.5q74 -49 165 -83t182 -37h15q83 -1 160 31q84 34 141 119q4 4 8 2t0 -6q-43 -72 -111 -115q-66 -43 -144 -61q-54 -12 -110 -12q-25 0 -50 2q-82 8 -154 39q-92 41 -171 105.5t-144 139.5q-16 20 -36 44t-40 51q-4 -10 -5 -22.5t-5 -22.5 q-8 -39 -16.5 -80t-8.5 -81t11.5 -78t41.5 -71q4 -6 0 -12t-10 -2q-29 14 -47 38.5t-27.5 53.5t-12.5 60.5t-3 60.5q0 53 9 107.5t24 107.5q-16 16 -33.5 32.5t-34.5 31.5q-43 -17 -86 -17h-15q-50 4 -95 47q-6 4 -4.5 11.5t10.5 11.5q34 12 66 12q16 0 32 -3q47 -9 90 -36 q31 12 60.5 32.5t58.5 45.5q47 147 105.5 288.5t111.5 286.5q12 29 31.5 81.5t38 111.5t28.5 119q6 35 7 67q1 23 -3 43q-8 50 -39.5 80.5t-95.5 30.5q-80 -2 -151.5 -38t-132 -91t-107.5 -124t-76 -136q-31 -70 -40 -151q-4 -32 -4 -64q0 -49 8 -95q14 -78 53 -146 t104 -116q6 -4 3 -9t-9 -3q-78 35 -128 98.5t-71 145.5q-13 48 -13 95q0 40 9 78zM102 315q31 -23 64 -25q7 0 13 -1q27 0 54 8q-31 16 -63 22q-12 2 -25 2q-21 0 -43 -6zM285 289q14 -10 27.5 -21.5t25.5 -23.5q6 23 12 45t15 45v4q-18 -14 -37.5 -26.5t-42.5 -22.5z" />
<glyph unicode="L" horiz-adv-x="727" d="M2 -84q-5 13 -5 25q1 21 15 37q24 26 51 36q52 22 110 22q18 0 37 -2q79 -9 146 -44q-35 56 -44 122q-5 37 -5 75q0 29 3 59q7 68 25.5 136.5t39.5 127.5q53 147 125.5 288.5t148.5 280.5q35 66 75 133.5t56 139.5q7 29 7 58q0 15 -2 29q-5 44 -42 74q-27 23 -63 30 q-23 4 -44 4q-13 0 -26 -1q-74 -8 -137 -43t-115.5 -85t-95.5 -110.5t-74 -121.5q-35 -68 -62.5 -142.5t-38.5 -151.5q-7 -47 -6 -94q0 -30 2 -60q7 -76 42 -148q2 -4 -1 -6t-5 2q-47 76 -61 160q-9 52 -9 103q0 32 3 64q9 84 38 167t72 155q33 57 79 113.5t101 102.5 t118.5 78t133.5 42q21 3 41 3q31 0 65 -8q54 -12 86 -59q20 -29 26.5 -59.5t3.5 -62t-12 -63.5t-22 -60q-63 -166 -146 -321t-155 -316q-37 -86 -68.5 -171t-54.5 -175q-18 -71 -18 -145v-15q2 -82 49 -148q6 -4 23 -16q10 4 18 7t16 7q88 37 177.5 70t185.5 45q33 4 78 4 t85 -11t66 -39q21 -23 20 -59q0 -9 -1 -18q0 -4 -6.5 -6t-8.5 4q-10 39 -39.5 56.5t-67.5 22.5q-24 3 -48 3q-15 0 -30 -1q-40 -3 -69 -9q-57 -10 -112 -26.5t-111 -37.5q-61 -23 -129 -43q0 -2 -2 -2h-4q0 -8 -8 -4q-72 -23 -144.5 -38t-146.5 -15q-33 0 -73 8t-56 43z M25.5 -56.5q-3.5 -15.5 21.5 -35.5q18 -14 45 -17.5t56.5 -1.5t58.5 7.5t49 9.5q35 6 67.5 17t67.5 24q-2 2 -2 4q-39 20 -79 34.5t-83 18.5q-19 2 -39 2q-34 0 -71 -6q-12 -2 -34 -9t-38 -19.5t-19.5 -28z" />
<glyph unicode="M" horiz-adv-x="1916" d="M6 612q-4 31 -5 62q0 49 11 98q31 137 120 254t206 193q49 31 110.5 58.5t125.5 40.5q44 9 88 9q20 0 40 -2q64 -6 119 -41q69 -42 85 -108q9 -35 9 -72q1 -32 -7 -66q-14 -72 -45.5 -141.5t-55.5 -124.5q-35 -82 -71 -164t-64 -168q-10 -35 -21.5 -72.5t-17.5 -76.5 q-4 -29 -5 -58q0 -10 1 -19q2 -38 18 -73q-7 28 -7 56q0 21 4 41q9 48 30 96q20 53 43.5 104t50.5 103q104 211 236 411q131 197 280 371q37 47 76 94t86 84q23 18 53.5 30.5t59.5 2.5q0 -2 2 -2t4 -2q8 -4 12 -8q2 -2 2 -6q2 -6 4 -12.5t2 -12.5q1 -5 1 -11q0 -34 -22 -70 q-24 -42 -40 -77q-47 -92 -95.5 -182t-93.5 -184q-45 -96 -83 -192.5t-66 -199.5q-25 -90 -35 -176q-3 -23 -3 -45q0 -64 21 -129q2 80 31 156t66 145q41 80 83 159t89 157q47 76 98 146.5t113 133.5q16 18 41.5 45t54.5 49.5t60.5 35t62.5 3.5q16 0 37 -10q27 -18 30.5 -48 t-2.5 -58q-12 -57 -35.5 -113.5t-46.5 -110.5q-23 -53 -43 -106.5t-43 -106.5q-45 -111 -91 -218t-83 -218q-15 -48 -31 -110q-15 -59 -15 -114v-8q1 -60 26.5 -107.5t93.5 -63.5q6 0 0 -6q-11 -2 -22 -2q-27 0 -47 11q-30 15 -51 41.5t-33.5 61.5t-14.5 68q-2 20 -2 39 q0 29 4 58q6 48 20.5 96.5t33 94.5t36.5 91q43 102 85 202.5t83 200.5q23 51 44.5 101.5t43.5 99.5q12 29 26.5 56.5t24.5 56.5q6 16 10.5 37.5t-5.5 37.5q-14 20 -33 25q-37 -8 -71 -29.5t-64.5 -50.5t-57 -60.5t-51.5 -58.5q-49 -59 -93 -123.5t-85 -130.5t-78 -133 t-74 -137q-41 -78 -70.5 -156t-33.5 -166q0 -4 -1 -5t-1 -3q0 -4 -2 -6t-6 2q-2 0 -2 2q-6 2 -7 8q-47 57 -56 134q-5 41 -5 80q0 35 4 69q10 90 36 176t58 170q35 88 76 172t84 168q23 43 44.5 85t43.5 83q10 23 21.5 43t21.5 41q2 4 10.5 16.5t15.5 26.5t13 28.5t4 24.5 q-45 -14 -77.5 -49t-63.5 -70q-35 -37 -66.5 -74.5t-64.5 -78.5q-66 -82 -127.5 -166t-120.5 -172q-57 -88 -110.5 -177t-102.5 -181q-25 -45 -52.5 -96.5t-50.5 -104.5q-24 -52 -36 -108q-7 -30 -7 -59q0 -25 5 -50q2 -4 -1 -6t-8 0h-4q-45 45 -53 102q-4 25 -4 51 q0 32 6 66q12 84 39 161.5t59 155.5q29 70 59 138.5t58 140.5q12 31 24.5 65.5t18.5 70.5q4 22 4 43q0 13 -2 27q-4 34 -24 66q-38 56 -98 72q-38 10 -79 10q-25 0 -49 -3q-68 -9 -133 -36t-108 -53q-117 -70 -208 -179.5t-126 -244.5q-14 -49 -14 -98q-1 -31 5 -61 q14 -79 70 -144q43 -51 98.5 -87t114.5 -65q4 -2 3 -4t-5 -2q-70 27 -133 65t-110 97q-50 67 -62 147z" />
<glyph unicode="N" horiz-adv-x="1718" d="M6 546q-4 32 -5 63q0 49 11 98q31 137 120 253.5t206 192.5q49 31 110 59q62 26 126 40q44 9 87 10q21 0 41 -2q64 -6 119 -41q69 -43 85 -109q9 -35 9 -72q1 -32 -7 -66q-14 -72 -45.5 -141t-55.5 -124q-35 -82 -70.5 -164t-64.5 -168q-12 -37 -24.5 -79t-17.5 -85 q-2 -20 -3 -39q0 -23 4 -45q6 -41 31 -76q4 -4 0.5 -6t-7.5 0q-45 45 -53 103q-4 26 -4 51q0 32 6 65q12 84 39 162t59 156q29 70 59 138t58 140q12 31 25 66q12 34 18 70q4 21 4 43q0 14 -2 28q-4 35 -24 66q-38 57 -98 73q-38 10 -77 9q-25 1 -51 -3q-68 -10 -133 -36.5 t-108 -53.5q-117 -70 -208 -179t-126 -243q-14 -50 -14 -99q-1 -31 5 -61q14 -78 70 -143q43 -53 98.5 -89t114.5 -64q4 0 3 -3t-5 -3q-70 27 -133 64.5t-110 96.5q-50 66 -62 147zM648 140q2 48 16 95.5t35.5 93.5t41.5 87q94 193 209 375q51 80 105.5 157.5t111.5 153.5 q59 76 120 149.5t130 137.5q53 51 120.5 92t145.5 49q8 1 16 1q32 1 52 -13q25 -16 36 -46q10 -27 10 -59v-6q-1 -35 -7 -68q-20 -98 -60 -189t-79 -183q-41 -92 -80 -181.5t-74 -181.5q-37 -94 -67.5 -188t-53.5 -193q-10 -41 -22 -101q-8 -41 -7 -81q-1 -19 1 -37 q6 -57 32.5 -99t94.5 -48q4 0 4 -5.5t-4 -5.5q-74 0 -121 53.5t-58 120.5q-5 33 -5 67q0 17 1 35q4 52 15.5 103t27 101.5t29.5 97.5q55 174 129 340t145 332q23 47 44.5 96t39.5 98q6 14 14.5 41t13.5 55.5t3 54t-18 38.5q-18 14 -46 14t-55.5 -9t-53.5 -22.5t-44 -23.5 q-37 -23 -68.5 -49.5t-62.5 -55.5q-127 -127 -234.5 -273.5t-203.5 -299.5q-47 -78 -92.5 -158t-86.5 -164q-23 -45 -45 -91t-39 -93q-16 -48 -22 -98q-2 -17 -2 -33q0 -34 8 -68q4 -10 -7 -15t-15 5q-19 44 -19 88q1 4 1 7z" />
<glyph unicode="O" horiz-adv-x="1400" d="M8 807q23 145 95.5 276t181.5 232q57 53 125.5 97t143.5 72q76 28 154 40q38 6 77 6q40 0 81 -6q76 -12 141.5 -45t116 -82t85 -113.5t46.5 -140.5q12 -66 11 -133v-24q-2 -79 -16.5 -157.5t-36 -155.5t-46.5 -149q-51 -164 -133 -323q-4 -6 -12 -23q106 31 207.5 82 t175.5 135q6 6 12 0t2 -14q-78 -92 -188.5 -149.5t-226.5 -90.5q-29 -55 -63 -107t-75 -95q-46 -49 -114 -79q-38 -17 -78 -17q-30 0 -60 10q-57 16 -94 60t-59 97q-23 63 -33 140q-109 40 -205 114q-129 100 -185 240q-38 95 -38 201q0 50 8 102zM53 723q-1 -14 -1 -27 q0 -58 14 -114q16 -66 51 -125.5t83 -108.5t106.5 -88t119.5 -65v13q0 104 30 204q32 106 91 194q4 8 11 4t3 -12q-43 -80 -69.5 -166t-30.5 -178q-2 -16 -2 -34.5v-37.5q125 -47 254 -50h20l238 32q12 4 20 6q4 10 10 20q143 276 201 576q12 63 20 132q5 45 4 89 q0 23 -1 47q-4 68 -22.5 133.5t-55.5 122.5q-43 63 -103 104q-62 40 -130 58q-62 16 -127 16h-15q-74 -2 -143 -20q-133 -39 -244.5 -125t-187.5 -199q-39 -57 -70 -122.5t-50.5 -136t-23.5 -142.5zM463 137q4 -45 17.5 -87t35.5 -81q49 -78 131 -89q15 -2 30 -2 q66 0 126 40q57 39 96 96.5t72 116.5q-27 -6 -52.5 -11t-50.5 -9q-75 -13 -150 -13q-26 0 -54 2q-102 6 -201 37z" />
<glyph unicode="P" horiz-adv-x="1245" d="M8 906q18 85 53 165q31 68 76 133.5t100.5 120.5t122 96t140.5 62q37 10 74 10q28 0 54 -5q64 -13 95 -79q14 -31 17 -65q2 -17 2 -33.5t-2 -33.5q-3 -34 -10 -66.5t-15 -63.5q-33 -125 -75 -246t-89 -242q47 88 96 173.5t103 168.5q53 86 108 169t123 157q18 20 50 53 t68 58q37 24 73 30q6 1 11 2q29 0 54 -28q23 -26 27 -60q2 -17 2 -33.5t-2 -31.5q-4 -45 -10.5 -89t-16.5 -87q-47 -208 -129 -396q-37 -84 -81 -171t-100.5 -167.5t-125 -148.5t-154.5 -108q-61 -30 -133 -38q-24 -3 -47 -2q-47 0 -92 11q-4 -25 -8 -39q-8 -39 -16.5 -80 t-8.5 -81t11.5 -78t41.5 -70q4 -6 0 -11.5t-10 -1.5q-29 14 -46 38t-27.5 52.5t-13.5 60.5t-3 60q2 80 22 168q-51 23 -90 62t-59 98q-2 4 2 6t6 -2q27 -47 66 -75.5t86 -45.5q14 61 34 123q49 160 112 314.5t122 310.5q10 29 30.5 81t38 111.5t27.5 119.5q6 36 6 68 q0 22 -3 42q-7 49 -37.5 79.5t-96.5 30.5q-80 -2 -151.5 -37.5t-132 -91t-107.5 -124t-76 -136.5q-31 -71 -40 -151q-4 -32 -4 -64q0 -48 8 -94q14 -78 53 -146.5t106 -115.5q4 -4 1 -9.5t-9 -3.5q-78 35 -128 98.5t-71 145.5q-11 47 -11 93q1 40 9 80zM387 168q27 -6 59 -6 q86 0 161 33t138 90q61 55 113.5 123.5t95.5 143.5t78 153.5t64 154.5q33 84 56.5 167t41.5 169q10 41 20 84q9 36 9 71v13q-2 29 -15.5 51.5t-48.5 14.5q-25 -6 -46 -23.5t-38 -34.5q-68 -57 -124 -124.5t-106 -142.5t-95 -151.5t-88 -152.5q-59 -102 -111.5 -207 t-99.5 -213q-35 -102 -64 -213z" />
<glyph unicode="Q" horiz-adv-x="1400" d="M8 809q23 147 95.5 278.5t181.5 231.5q57 53 125.5 97t143.5 73t154 40q37 5 75 5q41 0 83 -6q154 -25 258.5 -127.5t130.5 -255.5q12 -64 12 -131q0 -12 -1 -24q-2 -79 -16.5 -157.5t-36 -155.5t-46.5 -149q-51 -164 -133 -323q-4 -6 -6 -11.5t-6 -11.5q106 31 207.5 82 t175.5 135q6 6 12 0t2 -14q-78 -92 -188.5 -149.5t-226.5 -92.5q-20 -37 -42 -74.5t-49 -72.5q16 -12 33 -26.5t33 -30.5q39 -35 85 -65t95 -44q30 -9 60 -9q19 0 39 4q49 9 96 50q4 4 8 1t0 -7q-25 -35 -57.5 -53.5t-70.5 -24.5q-19 -3 -38.5 -3t-39.5 3q-40 6 -75 23 q-57 23 -102 68.5t-94 80.5q-6 -8 -19 -20q-47 -51 -114 -80q-40 -17 -80 -17q-29 0 -58 9q-57 16 -94 61t-59 98q-12 33 -20.5 68t-12.5 72q-106 39 -205 112q-129 102 -185 242q-38 95 -38 201q0 49 8 100zM54 726q-1 -13 -1 -25q0 -59 13 -115q16 -66 51 -125.5 t83 -108.5t106.5 -88t119.5 -65v13q0 104 30 204q33 106 91 194q4 8 11 3t3 -11q-43 -80 -69.5 -166t-30.5 -178q-2 -18 -2 -36.5v-37.5q125 -47 254 -49h14l244 33q4 2 9 2t11 2q2 6 4 11t6 12q141 270 201 575q12 63 20 132q4 45 4 89q0 24 -1 47q-4 68 -22.5 133.5 t-55.5 122.5q-43 63 -103.5 102.5t-129.5 57.5q-63 18 -131 18h-11q-74 -2 -143 -22q-133 -37 -245 -123t-187 -201q-39 -55 -70 -121.5t-50.5 -136t-22.5 -142.5zM463 141q4 -45 17.5 -88t35.5 -80q49 -78 131 -89q15 -2 30 -2q66 0 126 40q31 20 61 53q-33 20 -70 27 q-11 1 -23 1q-29 0 -62 -11q49 37 105 37q15 0 30 -2q24 -3 49 -17q23 29 42 60.5t36 64.5q-27 -6 -52.5 -12t-50.5 -10q-74 -13 -147 -13q-131 0 -258 41z" />
<glyph unicode="R" horiz-adv-x="1193" d="M8 896q18 85 53 165q31 68 76 133.5t100.5 120.5t122 96t140.5 62q36 10 72 10q28 1 56 -5q64 -14 95 -79q14 -31 17 -65q2 -17 2 -34q0 -18 -2 -34q-3 -34 -10 -66.5t-15 -62.5q-27 -98 -58.5 -193.5t-66.5 -191.5q35 72 72.5 141.5t78.5 138.5q47 78 97.5 151.5 t113.5 137.5q61 66 131 109q29 18 65 38q26 15 51 15q10 0 20 -2q37 -8 51 -38t15 -68v-11q0 -32 -5 -64q-6 -38 -10 -63q-16 -100 -46 -196.5t-71 -190.5q-37 -90 -80 -178t-96 -170q-43 -66 -98.5 -122t-133.5 -85q-50 -17 -98 -17q-16 0 -32 2q-64 8 -119 42 q49 -76 103 -146t120 -131q49 -47 122.5 -98t151.5 -79q53 -19 104 -19q25 1 49 5q75 14 126 97q4 4 9 2t1 -8q-20 -63 -83.5 -101.5t-129.5 -40.5q-86 0 -164 45.5t-143 98.5q-98 80 -176 183t-144 218q-23 -68 -41 -136.5t-34 -139.5q-8 -39 -16.5 -80t-8.5 -81t11.5 -78 t41.5 -71q4 -6 0 -11t-10 -1q-29 14 -46 38t-27.5 52.5t-13.5 60t-3 60.5q2 86 22.5 170t44.5 164q10 29 18.5 57.5t18.5 57.5q-41 55 -53 129q0 2 -1 3t-1 3q0 4 2 6q-2 4 -2 14q0 4 3 4t5 -4q0 -8 4 -20q14 -23 28.5 -47.5t29.5 -46.5q43 119 89 235.5t93 233.5 q10 31 30.5 82t37.5 110q18 60 28 120q6 36 6 67q0 23 -3 43q-7 50 -37.5 80t-96.5 30q-80 -2 -151.5 -38t-132 -91t-107.5 -124t-76 -136q-31 -70 -40 -151q-4 -32 -4 -64q0 -48 8 -94q14 -78 53 -146.5t106 -115.5q4 -4 1 -9.5t-9 -3.5q-78 35 -128 98.5t-71 145.5 q-11 47 -11 93q1 40 9 80zM457 393q47 -39 102 -53q40 -12 77 -11q42 0 81 14q74 28 131 87q53 53 90 115.5t70 128.5q41 80 77.5 160.5t65.5 166.5q29 82 51.5 167t32.5 171q2 16 3 36t-5 36q-14 33 -41 27t-51 -17q-68 -35 -123 -80q-61 -53 -113.5 -116.5t-97.5 -132 t-84 -142t-76 -143.5q-84 -156 -151 -315q-4 -8 -13 -29q-4 -10 -7 -18.5t-7 -18.5q-4 -8 -6 -16.5t-6 -16.5z" />
<glyph unicode="S" horiz-adv-x="1019" d="M6 473q12 63 42 119.5t73 101.5t98 76t119 43q32 6 63 5q25 0 51 -3q58 -8 105 -45q16 20 30.5 38.5t30.5 37.5q23 29 45.5 55.5t45.5 54.5q-8 41 -14.5 84t-8.5 86v24q0 54 7 108q9 66 34 126q20 47 54 93.5t87 56.5q10 2 20 2q29 0 51 -18q30 -24 38 -64q3 -17 3 -34 q0 -40 -16 -80q-22 -58 -44 -105q-35 -78 -82 -147.5t-99 -137.5q12 -63 28.5 -126.5t32 -128t26 -129t10.5 -130.5q0 -59 -10.5 -118.5t-33 -115t-57.5 -102.5t-86 -82q-67 -47 -145 -59q-33 -5 -67 -5q-44 0 -89 9h-4l-2 2q33 -94 98 -166q4 -6 -1 -10t-9 0 q-47 37 -76.5 85t-46.5 101q-68 20 -133 70q-98 77 -144 191q-31 77 -31 158q0 39 7 79zM70 380q2 -66 27.5 -128t74.5 -113q23 -27 50.5 -47t58.5 -37q-21 49 -25 103q-2 18 -1 35q0 36 6 72q9 54 28.5 105.5t46.5 98.5q35 63 79 119.5t89 113.5q10 12 18 23.5t19 24.5 q-54 38 -122 38h-3h-7q-77 0 -145 -44q-72 -46 -119 -109q-41 -57 -59 -123q-16 -59 -16 -118v-14zM322 39q69 -29 143 -29q11 0 23 1q86 5 157 59q51 39 85 94t51.5 116.5t20.5 127.5q1 22 1 43q0 43 -4 84q-10 98 -36 193t-48 194q-20 -27 -40 -51.5t-42 -51.5 q-12 -16 -25.5 -33.5t-27.5 -33.5q37 -37 52 -83q9 -28 9 -57q0 -20 -4 -41q0 -4 -4 -4t-4 4q1 9 1 17q0 37 -14 72q-18 42 -51 71q-31 -41 -59.5 -80t-56.5 -80q-43 -66 -76 -138.5t-49 -149.5q-14 -63 -14 -126q0 -59 12 -118zM719 1081q2 -25 5 -48t7 -46 q70 90 127 185.5t84 203.5q6 20 6 47t-7 47.5t-25.5 30.5t-51.5 0q-37 -10 -60.5 -42t-39.5 -66q-35 -72 -43 -153q-5 -46 -4 -92q-1 -34 2 -67z" />
<glyph unicode="T" horiz-adv-x="874" d="M2 -113q0 4 3 3t3 -5q0 -37 15.5 -63.5t40 -43t56.5 -24.5q21 -5 43 -5l21 1q61 2 102.5 33t69 76t45 100t33.5 111q29 106 55.5 211.5t55.5 212.5q10 43 22.5 86t24.5 84v4q25 76 25 152q0 56 -14 111q-32 130 -136 222q-2 2 -4 3t-4 3q-57 -14 -107 -16 q-23 -2 -52.5 -4t-59 -1t-57 8t-46.5 23q-16 14 -18 27.5t5 25t20.5 20.5t27.5 15q44 16 89 16q33 -1 66 -9q79 -20 144 -66q84 29 165 64.5t165 64.5q117 39 239 63q91 18 184 17q31 0 62 -2q43 -2 88 -15.5t80 -37.5q34 -25 54 -64q15 -30 15 -67q0 -11 -1 -23 q0 -6 -6.5 -6t-6.5 6q-4 51 -31.5 82t-68.5 47t-88 21.5t-86 5.5q-86 0 -169 -13.5t-165 -35.5q-100 -27 -197.5 -66t-197.5 -68q18 -16 33.5 -32.5t29.5 -32.5q82 -112 83 -244q0 -6 -1 -12q6 16 12.5 34.5t12.5 35.5q33 86 72.5 166.5t115.5 140.5q6 6 12.5 1t0.5 -14 q-76 -82 -116 -189t-75 -212q-35 -111 -65.5 -219.5t-59.5 -218.5q-29 -109 -52.5 -220.5t-64.5 -215.5q-16 -41 -38.5 -83t-56.5 -76t-84 -55.5t-120 -21.5q-35 0 -62.5 16.5t-47 43t-28.5 59.5q-6 23 -6 45q0 10 1 20zM149 1188q11 -14 33 -21q32 -9 68 -9h7q40 1 75 5 q23 4 47 9.5t47 13.5q-41 29 -89 45t-97 16q-14 0 -44 -4t-40 -16q-18 -25 -7 -39z" />
<glyph unicode="U" horiz-adv-x="968" d="M0 852q4 100 40 192.5t99 172.5q23 29 52.5 60.5t64.5 59t73 47t79 23.5q10 1 18 1q36 0 56 -20q24 -24 32 -61q6 -27 6 -56q0 -11 -1 -23q-3 -42 -9 -74q-18 -115 -55 -223.5t-78 -216t-79 -216t-62 -221.5q-12 -55 -22 -115q-8 -44 -9 -87q0 -16 2 -32 q4 -33 17.5 -62.5t45.5 -39.5q14 -5 28 -5q22 0 41 14q32 22 54 48q70 78 126 168t104 185q51 102 92 205.5t82 209.5q23 74 48 146t56 143q23 57 50.5 112.5t60.5 108.5q25 41 57.5 75t79.5 48q6 4 8 -3t-2 -11q-43 -33 -77 -77t-59.5 -93t-47 -101.5t-41.5 -101.5 q-41 -104 -75 -210.5t-62 -217.5q-31 -113 -58.5 -227.5t-32.5 -233.5q-1 -18 -1 -38q0 -25 1 -54q2 -51 16.5 -98t42 -84t75.5 -51q4 -2 3 -6.5t-5 -1.5q-43 8 -75 33.5t-53.5 59.5t-34 73.5t-16.5 80.5q-2 27 -2 53q-1 37 3 75q6 65 18 128.5t27.5 126t31.5 123.5 q-27 -63 -54.5 -124.5t-57.5 -121.5q-14 -25 -43 -76t-67 -107t-82 -110q-44 -52 -90 -80q-38 -23 -73 -23q-8 0 -15 1q-42 6 -77 68q-22 40 -22 88v6q2 51 6 98q6 51 16 100.5t23 98.5q27 104 65.5 205.5t81.5 201.5q45 106 91 215t59 226q4 33 4 77t-35 66q-27 16 -57.5 8 t-55.5 -22q-41 -20 -75.5 -49t-65.5 -64q-63 -72 -101 -161t-51 -183q-6 -45 -6 -95t10.5 -97t35 -88t67.5 -66q6 -4 2 -10t-10 -2q-43 18 -74 52t-49.5 77t-26.5 90q-6 38 -6 73v17z" />
<glyph unicode="V" horiz-adv-x="1005" d="M8 908q16 81 47 159q29 72 69 136.5t87 123.5q43 53 94 103.5t117 76.5q27 10 57.5 16.5t60 5.5t56.5 -13.5t45 -38.5q20 -29 29.5 -65t9.5 -74t-4 -75.5t-10 -68.5q-14 -88 -37 -174t-50.5 -171t-56 -169t-53.5 -170q-23 -86 -41 -172t-29 -176q-4 -42 -5 -94v-7 q0 -48 12 -92q12 -47 41.5 -78.5t87.5 -31.5q-13 29 -13 61q0 18 4 36q11 52 21 95q16 61 33.5 121.5t37.5 120.5q72 211 167.5 408.5t215.5 383.5q59 88 123 177t144 159q18 14 52 40q34 25 72 43q34 16 65 17q3 0 7 -1q34 -2 52 -41q2 -4 -2.5 -9.5t-8.5 -1.5 q-23 16 -50.5 11.5t-54 -20t-51 -36t-38.5 -34.5q-43 -41 -80 -88.5t-72 -94.5q-74 -98 -140.5 -199.5t-125.5 -209.5q-125 -225 -213 -459q-23 -55 -42.5 -110.5t-35.5 -112.5q-10 -31 -21.5 -65t-19.5 -67.5t-11 -68.5q-1 -10 -1 -19q0 -25 6 -49q0 -4 -3 -6t-7 2 q-10 -1 -20 -1q-23 1 -45 7q-30 10 -54.5 29t-41.5 45.5t-28 57.5q-19 60 -19 124q-1 20 1 40q8 86 22 163q29 158 80.5 307.5t100.5 300.5q10 31 30.5 89.5t39 125t28.5 136.5q6 39 6 72q0 28 -4 52q-8 54 -41 86q-28 26 -81 26q-10 0 -21 -1q-78 -10 -140.5 -59 t-109.5 -107q-49 -63 -91 -131.5t-71 -144.5q-23 -61 -29 -136q-2 -23 -2 -46q-1 -51 9 -101q14 -72 45.5 -136.5t87.5 -107.5q6 -4 1 -10t-12 -2q-66 37 -110.5 91.5t-63.5 129.5q-11 48 -11 95q0 37 7 72z" />
<glyph unicode="W" horiz-adv-x="1271" d="M0 877q6 111 54 221t108 202q45 70 110.5 135.5t149.5 90.5q30 9 61 9h7q34 -1 62 -13.5t46 -39t20 -65.5q1 -11 1 -21q0 -44 -13 -88q-16 -56 -31 -104q-16 -55 -32.5 -109.5t-36.5 -107.5q-39 -109 -82 -214t-84 -212q-41 -109 -78 -218.5t-63 -221.5 q-6 -29 -9.5 -61.5t13.5 -59.5q14 -23 37.5 -30t46.5 10q12 10 20 22t19 27q33 47 63.5 94t61.5 94q123 201 218 411t179 427q4 12 16 8q4 8 4 12q4 6 12.5 3t4.5 -11q-66 -188 -109 -384t-59 -394q-6 -74 -6 -147.5t22 -145.5q12 -47 37 -90q4 -8 10 -17.5t13 -15.5 q10 -6 30.5 -13t32.5 -1q14 6 22.5 25.5t14.5 42t10 45t8 34.5q41 160 79 319.5t83 319.5q47 158 104.5 310.5t135.5 295.5q27 51 67.5 110.5t91.5 100.5q50 42 112 54q14 3 27 3q49 0 101 -34q6 -4 2 -10t-8 -2q-34 15 -65 15q-18 0 -35 -5q-47 -13 -87 -43.5t-72 -73.5 t-54 -82q-100 -174 -172 -360q-66 -166 -115 -333t-96 -335q-23 -86 -47.5 -169t-49.5 -169q-6 -20 -16 -42.5t-25.5 -38t-36 -18.5t-44.5 13q-53 39 -80 107.5t-37 132.5q-8 56 -8 114q0 24 1 48q5 82 15 161q10 86 26.5 168t39.5 164q-131 -291 -304 -557 q-29 -45 -58.5 -90t-61.5 -88q-18 -27 -41 -43.5t-58 -7.5q-47 12 -64.5 44.5t-17.5 73.5t10.5 84t18.5 76q59 215 145 418t162 412q20 51 38 102t34 104q6 25 17.5 59t15.5 68q2 13 2 26q0 20 -4 39q-6 30 -35 48q-27 16 -58 16q-17 -1 -35 -5q-52 -14 -87 -36 q-45 -29 -82 -64.5t-68 -76.5q-129 -176 -160 -389q-6 -42 -6 -86v-22q2 -54 16.5 -106t42 -98t72.5 -79q4 -2 1 -7t-7 -1q-92 51 -136 141q-40 82 -40 178v17z" />
<glyph unicode="X" horiz-adv-x="1478" d="M0 18q-1 8 -1 16q0 50 21 97q2 4 4.5 3t2.5 -5q-10 -45 -10 -89q0 -50 30 -91q43 -68 117 -101q45 -21 91 -21q33 0 67 11q80 27 141 84q53 49 92 108.5t74 121.5q37 59 69.5 119.5t67.5 121.5l25 49q35 186 83 368.5t76 371.5q8 49 14 101q2 17 3 34q0 34 -9 67 q-16 66 -65 84q-18 7 -38 6q-33 0 -71 -18q-88 -41 -162.5 -110.5t-127.5 -147.5t-86 -167t-43 -185q-4 -32 -3 -65q0 -57 11 -117q18 -92 84 -158q4 -4 0 -9t-8 -1q-84 66 -113 154q-21 64 -21 132q1 24 3 50q10 96 47.5 189t87.5 167q100 152 252 252q29 18 64.5 35.5 t71.5 23.5q13 2 25 2q22 0 44 -7q32 -11 57 -50q20 -37 27 -79q5 -29 5 -60q0 -13 -1 -26q-3 -44 -10 -87t-13 -82q-16 -115 -41 -226.5t-47 -224.5q-4 -16 -7 -31.5t-8 -31.5q37 68 74 135.5t76 132.5q68 113 142.5 218.5t164.5 203.5q39 43 85 86t98 75q54 32 112 48 q36 10 73 10q24 0 48 -4q6 -2 5 -8t-5 -6h-13q-42 -1 -80 -11q-44 -12 -84 -35.5t-76 -54t-69 -61.5q-123 -123 -219 -258q-104 -145 -189 -299t-169 -309q-12 -68 -21.5 -134.5t-13.5 -134.5q-2 -43 -6 -95q-2 -30 -2 -59q0 -22 1 -45q3 -52 18.5 -99.5t51.5 -77.5 q27 -23 59 -27t63.5 3t62.5 22.5t55 33.5q43 33 78 74t68 86q66 92 120 189.5t103 199.5q4 8 13 4t5 -12q-43 -109 -103.5 -210t-129.5 -193q-29 -37 -61.5 -75t-71.5 -68.5t-82 -51t-92 -22.5h-8q-59 -1 -97 27q-42 30 -64 78t-30 108q-7 54 -7 110v14q1 62 6 119.5 t11 98.5q-35 -66 -69.5 -128.5t-73.5 -121.5q-35 -53 -77 -108.5t-93 -98.5t-111 -67q-42 -16 -91 -16q-20 0 -42 3q-61 8 -108.5 42t-75 83.5t-31.5 107.5z" />
<glyph unicode="Y" horiz-adv-x="1069" d="M8 830q-9 48 -9 97t9 99q19 100 68 184q47 82 116.5 154t153.5 117q33 16 73 28.5t80 15.5q10 1 21 1q29 0 58 -6q38 -9 69 -35q35 -29 47 -69q12 -37 12 -78v-6q-1 -44 -12.5 -88t-23.5 -81q-35 -113 -80 -219t-88 -217q-23 -53 -43.5 -108.5t-38.5 -110.5 q-18 -57 -32 -118q-11 -44 -11 -88q0 -18 2 -36t7 -38.5t15.5 -36t26.5 -22.5t41 -1q33 10 54.5 35.5t37.5 54.5q31 51 59.5 102.5t57.5 104.5q92 166 176 334t164 342q10 25 19.5 49t19.5 49q23 53 47 102.5t55 96.5q23 33 48.5 55.5t66.5 30.5q6 2 8 -5.5t-4 -9.5 q-33 -6 -57.5 -32.5t-44 -60.5t-33 -70.5t-25.5 -63.5q-31 -70 -57.5 -139.5t-48.5 -141.5q-41 -123 -74 -243.5t-68 -243.5q-35 -119 -75.5 -237.5t-100.5 -227.5q-53 -92 -133 -165.5t-188 -90.5q-17 -2 -34 -2q-35 0 -69 9q-51 12 -86 53q-27 31 -40 69q-8 23 -8 47 q0 14 3 29q2 4 6.5 4t4.5 -4q0 -41 17 -70.5t45 -48t64 -25.5q23 -5 46 -5q13 0 26 1q66 4 121 34t100 75q86 86 133.5 196.5t83.5 223.5q35 109 66 217.5t61 218.5q10 33 18.5 64.5t18.5 62.5q-68 -139 -139.5 -273t-146.5 -270q-29 -49 -54.5 -100t-60.5 -96 q-20 -25 -46 -42.5t-59 -19.5q-45 0 -70.5 27t-36.5 65.5t-12 81.5v17q0 32 3 57q16 106 58 208.5t83 201.5q47 106 93 210.5t87 215.5q18 47 27 103q1 13 1 25q0 42 -22 79q-29 49 -86 59q-29 5 -56 5t-52 -5q-100 -23 -179 -93.5t-132 -156.5t-89 -187q-25 -69 -25 -140 q0 -32 5 -64q14 -94 67.5 -174t139.5 -123q6 -4 3 -11t-9 -3q-102 39 -158.5 117.5t-75.5 173.5z" />
<glyph unicode="Z" horiz-adv-x="1206" d="M7 876q-5 31 -5 62q0 40 8 80q14 76 52 141.5t92.5 116.5t121 87t140.5 54q80 19 162 21h24q69 0 138 -6q81 -8 163 -19.5t162 -15.5q33 -2 65 -2q65 0 130 8q16 20 35.5 42.5t41 42t45 33t48.5 15.5q20 2 35.5 -7t21.5 -23.5t2 -31t-21 -28.5q-37 -27 -82 -42t-92 -24 q-10 -16 -20 -30.5t-21 -30.5q-88 -147 -165.5 -296t-153.5 -302q-78 -152 -151.5 -304.5t-164.5 -295.5q-27 -41 -53 -82t-59 -76q127 -29 249 -66.5t249 -58.5q61 -10 142 -12h17q73 0 141 14q76 16 135 58t77 120q2 8 9 7.5t7 -9.5q-6 -70 -47 -115.5t-99 -72.5t-126 -37 q-56 -8 -104 -8h-19q-84 2 -166 17.5t-163 37t-162 46t-161 44.5q-2 0 -4 1t-4 1l-33 -32q-20 -18 -45.5 -37t-54.5 -31t-59.5 -16t-59.5 8q-18 8 -33.5 23.5t-23.5 34t-6 38t16 37.5q16 20 43 28.5t56.5 9.5t59.5 -3t52 -6q20 -4 38.5 -6.5t39.5 -6.5l6 6q51 59 88 125 t72 134q39 76 75.5 150.5t73.5 150.5q74 150 148 297t153 294q35 63 72 124t80 120q-6 -2 -12 -2t-11 -2q-37 -3 -74 -3q-42 0 -86 4q-80 7 -160.5 17.5t-160.5 18.5q-64 6 -128 6h-32q-78 -2 -155.5 -22.5t-145 -59.5t-121 -97t-83.5 -134q-27 -65 -27 -136v-10 q2 -76 28.5 -144.5t79 -122.5t125.5 -81q10 -4 7 -13t-13 -7q-72 18 -126 62t-88 102t-45 128zM197 -115q19 -37 49 -42q8 -1 16 -1q23 0 48 10q34 14 68 39t58 50q-27 4 -52.5 9t-51.5 9q-20 4 -40 6t-40 0q-29 -4 -50 -25.5t-5 -54.5zM1323 1417q27 6 55 19q10 4 27.5 9 t28.5 15q18 6 18 13q0 11 -41 26l-4 -4q-16 -4 -33.5 -22.5t-27.5 -30.5q-6 -6 -11.5 -12.5t-11.5 -12.5z" />
<glyph unicode="[" horiz-adv-x="428" d="M0 154v8q23 10 43 11t43 -1q0 41 6 92t15.5 103.5t18.5 100.5t15 85q12 80 25.5 161t28.5 160q16 82 30.5 162t30.5 160q14 74 27.5 148.5t33.5 146.5q-29 0 -49 6q-10 4 -10 14.5t10 14.5q41 16 89 14t89 -14q6 0 5.5 -5t-5.5 -8q-47 -16 -94 -22q-12 -78 -28.5 -153.5 t-32.5 -151.5q-16 -78 -29.5 -156t-28.5 -156q-14 -78 -27 -156.5t-26 -156.5q-6 -37 -11 -88t-11 -104.5t-14.5 -105.5t-20.5 -93h18.5t18.5 -2q14 -4 26.5 -10t26.5 -11q2 0 2 -5t-2 -5q-14 -2 -27.5 -7t-29.5 -5q-12 -2 -25.5 0t-28.5 4q-25 2 -50 5t-52 20z" />
<glyph unicode="\" horiz-adv-x="534" d="M59 1567q-2 6 1 8t8 -6q33 -96 54 -158.5t38.5 -121t35 -124t46.5 -164.5q31 -111 60.5 -220t57.5 -220q27 -104 49.5 -208t47.5 -208q4 -14 0 -15t-8 11q-35 113 -70 219.5t-68 217.5q-29 104 -56.5 206.5t-55.5 206.5q-27 98 -44.5 164t-31.5 124t-28.5 123.5 t-35.5 164.5z" />
<glyph unicode="]" horiz-adv-x="446" d="M-41 166v8q29 12 58.5 12t58.5 -2h18t19 -2q16 166 51 328t65 326q18 90 36 177t34 177q16 80 29.5 162t33.5 159q-35 -6 -72.5 -4t-72.5 6q-4 0 -4 4.5t4 6.5q49 16 105.5 26t109.5 -4q6 -2 5 -7t-5 -9q-10 -4 -17 -6t-18 -6q-10 -84 -25.5 -165t-31.5 -165 q-16 -86 -32.5 -172t-33.5 -172q-35 -166 -64.5 -334t-78.5 -330h8q16 -4 29.5 -10t30.5 -10q2 0 2 -5t-2 -5q-16 -2 -31.5 -7.5t-32.5 -5.5q-16 -2 -30.5 0t-28.5 4q-29 2 -58.5 5.5t-58.5 19.5z" />
<glyph unicode="^" horiz-adv-x="417" d="M103.5 1217.5q5.5 21.5 15.5 44t22.5 44t18.5 35.5q25 49 53 98.5t63 92.5q6 8 14.5 3t10.5 -15q2 -86 2 -173t-4 -173q0 -12 -10 -11.5t-10 11.5q-6 147 -7 292q-23 -37 -43 -71.5t-39 -71.5q-27 -51 -47 -100q-10 -16 -14 -27.5t-20 -17.5l-3 2q-8 16 -2.5 37.5z" />
<glyph unicode="_" horiz-adv-x="661" d="M10 228q0 3 2 3q61 12 126 12.5t128 -1.5h70t70 -4q33 -4 64.5 -10.5t66.5 -10.5q4 0 4 -5t-4 -5q-35 -2 -71 -6t-71 -6q-33 0 -64.5 1t-64.5 3q-63 4 -127.5 7t-126.5 19q-2 0 -2 3z" />
<glyph unicode="`" horiz-adv-x="292" d="M74 1505q-10 14 4 24.5t24 -1.5q31 -35 64 -77t43 -89q2 -4 -2 -8t-8 0q-43 23 -72.5 66.5t-52.5 84.5z" />
<glyph unicode="a" horiz-adv-x="577" d="M-11 290.5q-3 26.5 1 47.5q4 27 14 57.5t28.5 57t43 46t55.5 23.5q9 1 16 1q31 1 41 -19q12 -24 9 -58q6 0 2 -4q-4 -16 -9 -26q6 6 9 10q10 10 24.5 3t7.5 -21q-17 -45 -31 -87q-7 -23 -8 -49q0 -21 5 -45q11 -49 43 -79q24 -23 61 -23q12 0 25 2q45 8 84 37t70.5 67.5 t57.5 82.5t44 81q4 6 10 2t2 -10q-20 -45 -52 -98t-73 -99t-91 -74q-41 -24 -88 -23q-10 0 -20 1q-39 4 -64.5 25.5t-39.5 52.5q-14 32 -18 68q-2 14 -2 28q0 22 4 45q-4 -8 -7 -10q-10 -25 -24.5 -49.5t-38.5 -34.5q-29 -12 -48.5 -3t-29.5 28.5t-13 46zM39 315 q0 -12 2 -26.5t8 -24.5t17.5 -12t29.5 12q10 6 18.5 21.5t12.5 25.5q29 49 51 107q2 12 4 25.5t-1 23.5t-12 16t-28 2q-20 -4 -35.5 -21.5t-27.5 -33.5q-35 -51 -39 -115z" />
<glyph unicode="b" horiz-adv-x="473" d="M-41 266q31 125 75 244t99 235q55 109 117 207q27 41 55.5 87t65.5 81q25 23 61 33q10 3 20 3q24 0 44 -17q26 -21 26 -54v-12q-6 -41 -16 -74q-25 -90 -71 -176t-107.5 -164.5t-135 -144t-153.5 -115.5l-19 -61q23 41 64 78q10 8 27.5 22.5t37 25.5t38 17t34.5 -2 t22.5 -28.5t6.5 -43t-3 -45t-5 -36.5q0 -10 -4 -27q25 8 49 15.5t47 13.5q37 10 76 21t61 46q4 6 10 2t2 -10q-12 -23 -32.5 -35t-44.5 -22q-41 -16 -82 -28.5t-82 -27.5q-2 0 -4 -1t-5 -1q-10 -41 -26.5 -80.5t-40.5 -72.5q-10 -14 -26.5 -29.5t-36 -27t-40 -12.5t-38.5 11 t-23.5 31t-3.5 38.5t10 37.5t21 31q29 39 71.5 56t87.5 30q0 2 1 3t1 3q2 10 11.5 37.5t13.5 56.5t1 51.5t-21 24.5q-14 2 -37 -14.5t-33 -24.5q-31 -23 -57 -51q-20 -23 -36 -46.5t-30 -50.5q-2 -4 -2 -9t-2 -9q-2 -10 -9 -13t-14.5 -1t-12.5 8t-3 16zM41.5 161 q-14.5 -26 5.5 -44q18 -16 37 -3t33 29q20 23 35.5 52.5t25.5 60.5q-29 -10 -57.5 -21.5t-48.5 -31.5q-16 -16 -30.5 -42zM47 426q82 57 153.5 122.5t131.5 149.5q63 88 108 183q29 63 43 125q4 14 8.5 29.5t2.5 31.5q-4 37 -27 49t-53 -4q-29 -16 -47.5 -45t-36.5 -55 q-14 -23 -28.5 -46.5t-29.5 -47.5q-61 -101 -112 -207q-35 -70 -62.5 -141.5t-50.5 -143.5z" />
<glyph unicode="c" horiz-adv-x="546" d="M-13 325v6q0 39 13 77q14 41 41 73.5t63 50.5q27 12 55.5 6t35.5 -40q1 -8 1 -16q0 -26 -14 -52q-20 -32 -45 -55q-4 -2 -6 0t0 6q14 12 28.5 42t2.5 50q-14 27 -29.5 17.5t-30.5 -21.5q-47 -43 -61 -100q-5 -19 -5 -37q0 -14 3 -28q6 -32 22.5 -57.5t43 -43t61.5 -21.5 q16 -2 32 -2q42 0 82 12q56 16 106 47t93 73t74 87q4 8 12 3t4 -13q-49 -74 -118.5 -130t-155.5 -87q-39 -14 -82 -20q-22 -3 -42.5 -3.5t-40.5 3.5q-40 6 -72.5 28.5t-53.5 65.5q-16 37 -17 79z" />
<glyph unicode="d" horiz-adv-x="696" d="M-16 342q6 25 18 53.5t31.5 52t43 40t52.5 20.5t43 -6t21 -27q25 94 65 195q59 147 152 276q41 59 91 120.5t117 92.5q25 11 48 11q20 0 40 -9q39 -17 39 -67v-7q0 -33 -11 -66.5t-27.5 -67t-36 -64.5t-35.5 -58q-41 -66 -87 -126t-99 -115q-47 -49 -101.5 -97 t-120.5 -71q-4 -23 -7 -42.5t-7 -39.5q-4 -31 -4 -69t7 -73.5t25.5 -64.5t53.5 -41q18 -6 37 -6q14 0 28 4q32 8 64.5 26.5t60 42t50.5 42.5q98 88 167 194q4 8 11.5 3t3.5 -11q-47 -78 -106.5 -145.5t-131.5 -122.5q-27 -18 -59 -37q-30 -19 -64 -27q-21 -5 -42 -5 q-13 0 -26 2q-34 5 -63 32q-47 44 -57 112q-6 43 -6 83q0 24 2 47q-16 -29 -38 -51.5t-46 -32.5q-25 -10 -45.5 -4t-32.5 21t-17 37.5t-1 45.5zM31 303q12 -31 31.5 -25.5t41 29t42 55t32.5 54.5q2 4 2 10q-2 23 -35 39q-29 -4 -49 -21q-20 -20 -35 -41q-12 -16 -26 -46.5 t-4 -53.5zM233 444q59 27 110.5 74t94.5 94q49 53 92 108.5t80 117.5q31 49 61.5 104t45.5 111q4 16 5 40.5t-15 34.5q-23 14 -47.5 8t-43.5 -18q-27 -16 -49 -38.5t-43 -45.5q-82 -98 -144.5 -211.5t-105.5 -234.5q-10 -35 -21 -71t-20 -73z" />
<glyph unicode="e" horiz-adv-x="589" d="M-9 304q-4 15 -4 30q0 24 9 47q-4 4 2 4q0 4 2 6q16 37 51 71t74 46q27 8 57.5 -1t36.5 -40q4 -18 -2 -35.5t-18.5 -33t-27.5 -27t-30 -17.5q-28 -11 -55 -11q-22 0 -43 7q-1 -5 -1 -11q0 -56 58 -91q42 -22 92 -22q20 0 42 4q75 12 135 32q123 43 223 131q4 4 7 1t-1 -7 q-158 -154 -377 -182q-28 -4 -57 -4q-20 0 -40 2q-50 4 -91 35q-33 28 -42 66zM45 367q31 -10 60.5 -5t58.5 27q8 6 18.5 18.5t15.5 27t1 27.5t-23 21q-16 6 -33.5 -1t-27.5 -15q-27 -20 -45.5 -46t-24.5 -54z" />
<glyph unicode="f" horiz-adv-x="591" d="M-78 60q2 42 6 73q8 70 31 141q-6 10 4 15q16 49 34.5 97t39.5 95q41 90 91 173t108 161q35 47 72.5 94t78.5 88q12 12 29.5 25.5t36 21t36 4t29.5 -23.5q12 -18 12 -42t-5 -47.5t-13 -46t-16 -38.5q-63 -143 -175 -253t-255 -171q-16 -39 -32 -79t-28 -81 q74 -37 156 -44q23 -2 45 -2q59 0 117 14q79 18 150 60t122 101q6 4 11 -1t1 -11q-63 -74 -144 -119t-175 -67q-32 -7 -69 -7q-14 0 -30 1q-53 4 -104 14q27 -31 41 -71t18 -83q0 -27 -6 -66.5t-21.5 -74.5t-41.5 -54q-15 -11 -33 -11q-16 0 -35 8q-37 14 -55.5 49t-25.5 76 q-5 31 -5 63v19zM-25 25q2 -16 5.5 -41t10.5 -46.5t21 -37t37 -15.5q20 0 32.5 18.5t20 43t9.5 50.5t2 40q0 63 -30 116.5t-85 82.5q-14 -53 -20 -106q-5 -32 -5 -65q0 -20 2 -40zM70 434q121 59 218 153.5t156 215.5q18 39 37 84q17 41 17 81v9q-2 33 -17.5 34t-34 -13.5 t-36 -35t-25.5 -28.5q-74 -86 -137.5 -178t-114.5 -193q-16 -31 -31.5 -62.5t-31.5 -66.5z" />
<glyph unicode="g" horiz-adv-x="559" d="M-338 -198q14 57 37 102q33 63 79 111t101 83t116.5 61.5t127.5 51.5q8 35 15 69.5t18 69.5q-23 -29 -47.5 -52.5t-53.5 -25.5q-35 -4 -49 11.5t-17 40t2 52t13 46.5q8 23 24.5 48.5t37 47t45 35.5t53.5 12q27 0 39 -11t14 -27.5t-4 -35t-14 -36.5q2 0 2 -1t2 -1 q18 23 47 24q10 2 15 -7t-5 -15q-39 -23 -53 -59t-25 -77q-6 -23 -11 -46t-9 -48q55 20 110.5 34.5t107.5 32t100 43t89 66.5q4 4 8.5 0t0.5 -8q-43 -49 -92.5 -77.5t-103.5 -48t-111.5 -35t-114.5 -37.5l-6 -31q-14 -76 -30 -149.5t-40 -145.5q-16 -45 -42 -94t-61.5 -89 t-82.5 -62q-33 -16 -71 -16q-16 0 -34 3q-39 4 -71.5 26.5t-49.5 59.5q-12 29 -12 60q0 22 6 45zM-304 -263q5 -32 30 -54q38 -34 85 -34q9 0 19 1q59 8 102 45q45 39 74 91t48.5 110.5t31.5 119t23 115.5q2 12 4 24.5t4 22.5q-106 -41 -206.5 -100.5t-164.5 -159.5 q-14 -23 -28.5 -54.5t-20.5 -63t-1 -63.5zM35 340q0 -18 10 -24.5t23.5 -4.5t27 9.5t21.5 17.5q20 23 35.5 49.5t31.5 52.5q0 2 -1 3t-1 3q2 6 7.5 19.5t7.5 28t-3.5 24.5t-23.5 12q-16 2 -32.5 -10t-26.5 -22q-45 -45 -64 -103q-4 -12 -9 -26.5t-3 -28.5z" />
<glyph unicode="h" horiz-adv-x="620" d="M-35 154q4 121 35 235.5t78 224.5q41 96 94 191.5t125 173.5q27 27 61 51q26 18 56 18q10 0 20 -1q31 -6 45.5 -30t16.5 -52v-9q0 -38 -14 -77q-16 -43 -42 -85t-56 -80t-56 -69q-59 -72 -128 -132t-147 -107q-8 -25 -15 -50.5t-13 -52.5q35 55 77 96q10 12 30 29.5 t42.5 31t44 17.5t35.5 -14q16 -12 20 -27q6 -14 -1 -38.5t-17 -51.5t-17.5 -52.5t-2.5 -41.5q16 -12 45.5 -11t61.5 8t59.5 16t41.5 16q49 20 94.5 48.5t86.5 63.5q4 4 7 0t-1 -8q-53 -59 -125 -99t-150 -59q-14 -4 -40.5 -8t-52 -3t-47 14.5t-28.5 43.5q-4 20 6.5 39 t20.5 35q4 10 10 20.5t11 20.5q10 16 8 32.5t-17 24.5q-20 -4 -41.5 -18t-42 -32.5t-38 -37t-25.5 -30.5q-35 -41 -60 -84q-6 -10 -12 -21.5t-10 -21.5l-12 -49q-4 -10 -12.5 -9.5t-8.5 11.5zM61 434q78 55 151 119.5t132 142.5q31 41 61.5 88t47.5 99q10 23 16 54.5 t-10 53.5q-14 18 -31.5 19.5t-36 -7t-34 -22.5t-25.5 -25q-37 -39 -64.5 -87t-54.5 -95q-29 -49 -55 -101.5t-49 -105.5q-12 -33 -24.5 -65.5t-23.5 -67.5z" />
<glyph unicode="i" horiz-adv-x="405" d="M-6 356q16 58 29 97q6 20 26.5 15t16.5 -28q-12 -47 -29 -94t-21 -96q-1 -8 -1 -16q0 -48 31 -81q25 -27 64 -26q16 0 35 4q47 14 86 50t72 71t60.5 71.5t52.5 77.5q4 8 12 3t4 -13q-33 -53 -70.5 -102t-85.5 -92q-37 -35 -83 -66q-41 -27 -89 -27h-12q-68 4 -92 45 q-24 39 -24 91q0 55 18 116zM53 575v3q0 14 8.5 20t19.5 6t19.5 -6t8.5 -20v-3q0 -14 -8.5 -21t-19.5 -7t-19.5 7t-8.5 21z" />
<glyph unicode="j" horiz-adv-x="325" d="M-678 -274v11q0 54 33 107q35 55 89 91t114 63q66 29 133 57.5t135 57.5q35 16 67.5 32.5t67.5 32.5q6 43 12.5 86t16.5 86q12 57 29.5 111.5t56.5 101.5q8 8 16 7t14.5 -7t7.5 -15t-5 -18q-29 -31 -45.5 -70.5t-25.5 -82.5t-14.5 -87t-11.5 -85q43 25 70 37t57.5 28.5 t73.5 46t121 84.5q10 6 17 -1t-1 -13q-70 -53 -115 -83t-79.5 -49t-67.5 -35.5t-80 -41.5q-12 -88 -27.5 -174t-50.5 -168q-23 -57 -58.5 -111.5t-81.5 -97.5t-102.5 -70.5t-121.5 -31.5q-9 -1 -17 -1q-56 0 -104 24q-55 26 -87 72t-36 106zM-652 -264q0 -35 15 -67 q16 -34 51 -60q31 -23 67 -32q32 -8 66 -8h7q38 1 75 13t70 31q57 35 98 85t70 109.5t47.5 124t28.5 125.5q4 25 7 48.5t7 46.5q-18 -10 -37.5 -18.5t-40.5 -18.5q-61 -29 -122.5 -54.5t-125.5 -52.5q-59 -27 -118.5 -55.5t-104.5 -75.5q-29 -31 -44 -65q-16 -37 -16 -76z M94 660.5q2 13.5 15 19.5q10 6 22 4q14 -4 18 -17.5t-2 -25.5t-20 -13t-25 9q-10 10 -8 23.5z" />
<glyph unicode="k" horiz-adv-x="618" d="M-49 174q4 59 20.5 118.5t32.5 119.5q20 61 41 121.5t45 119.5q41 102 91 198.5t116 184.5q23 31 52.5 72t70.5 53q33 10 53.5 -9t15.5 -52q-4 -43 -27.5 -90t-43.5 -86q-49 -102 -111 -197q-53 -84 -116.5 -163t-137.5 -144q-4 -10 -6 -18.5t-6 -16.5q-6 -23 -12 -44.5 t-15 -43.5q20 29 42 57.5t44 55.5q14 18 29.5 40.5t35 41t42 26.5t49.5 -2q4 -4 0 -8l2 -2q16 -23 6 -53.5t-24 -51.5q-18 -29 -45 -52t-58 -34q-6 -4 -13 -4h-13q14 -29 29.5 -54.5t37.5 -45.5q35 -37 84 -46q21 -4 42 -4l56 7q45 12 81 38.5t67 58.5t59.5 67.5t61.5 66.5 q4 4 7 1t-1 -7q-23 -49 -59.5 -94t-77.5 -82q-39 -35 -84 -60.5t-99 -31.5q-14 -2 -27 -2q-31 0 -59 10q-39 14 -68.5 41t-49 64.5t-27.5 80.5q-4 2 -12 11q-20 -29 -41 -55.5t-43 -53.5q-6 -12 -11.5 -25.5t-13.5 -25.5q-2 -4 -7 -3t-5 7zM63 453q72 78 137.5 158.5 t118.5 172.5q63 106 111 222q2 6 11.5 27.5t14.5 45t-1 39t-33 6.5q-25 -10 -49.5 -46t-38.5 -56q-72 -98 -125 -204.5t-94 -219.5q-14 -37 -26.5 -73t-25.5 -72zM90 352q12 -6 26.5 -1t29 15.5t26.5 21.5t18 18q16 23 33 51q10 10 10 18q2 25 -16 21q-41 -20 -70.5 -64.5 t-54.5 -75.5q-2 -2 -2 -4z" />
<glyph unicode="l" horiz-adv-x="499" d="M-17 256v15q0 30 3 60q4 38 10 72q20 160 84 318q29 78 65.5 150.5t83.5 140.5q16 25 36 55.5t43.5 57t51 45t62.5 20.5h7q43 0 65 -22q22 -24 24 -65v-12q0 -35 -9 -76q-11 -48 -27.5 -95.5t-35 -86t-28.5 -57.5q-63 -123 -157.5 -226.5t-221.5 -162.5q-10 -59 -12 -125 v-8q0 -62 30 -113q29 -43 64 -51q14 -3 28 -3q21 0 43 7q36 12 69.5 38t62.5 50q53 47 98 103.5t86 111.5q6 8 13 4t3 -12q-53 -76 -117.5 -149.5t-138.5 -130.5q-29 -23 -60.5 -36.5t-63.5 -14.5h-4q-29 0 -58 12q-31 14 -55 47q-23 31 -33 66.5t-11 72.5zM43 406 q111 61 196 152t144 204q55 100 86 213q7 29 17 63q5 18 5 34q0 15 -4 30q-6 25 -21 34t-34.5 8t-38 -11.5t-31.5 -22.5q-47 -43 -82.5 -100.5t-66.5 -112.5q-66 -115 -109 -242q-43 -119 -61 -247v-2z" />
<glyph unicode="m" horiz-adv-x="778" d="M-15.5 315.5q3.5 28.5 11.5 57.5q2 12 6 27.5t9 29.5t14.5 26.5t21.5 16.5q6 2 10 -6q12 -18 4 -39.5t-14 -42.5q-10 -33 -12 -59q16 37 36.5 71.5t45.5 67.5q18 23 44.5 42t57.5 3q4 -2 3 -4t-3 -2h-4q18 -4 24.5 -24.5t2.5 -39.5q-4 -27 -13.5 -52.5t-19.5 -47.5 q-10 -23 -26.5 -49.5t-14.5 -50.5q27 70 68 122q18 23 40.5 50.5t51.5 42.5q20 10 36.5 3t26.5 -28q14 -31 3 -61.5t-17 -59.5q-4 -16 -5 -30q0 -49 58 -58q14 -2 29 -2q25 0 51 6q35 10 69.5 25.5t65.5 36.5q37 23 73.5 48t65.5 58q4 4 8.5 0t0.5 -8q-35 -37 -74 -71.5 t-83 -61.5t-93 -43q-44 -14 -91 -14h-12q-63 3 -96 41q-22 25 -22 61q0 19 6 41q2 4 6 15.5t8 23.5t6 21.5t0 13.5q-6 8 -18.5 4t-24.5 -13.5t-22.5 -20.5t-14.5 -17q-29 -33 -49 -69t-39 -75q0 -4 -6 -4q0 -4 -3 -7t-7 1q-29 16 -29 43t10 55q6 14 19.5 40t25 54.5t15.5 54 t-10 42.5q-14 -6 -28.5 -19.5t-27 -30t-23 -33t-18.5 -28.5q-18 -27 -35.5 -52.5t-33.5 -51.5q0 -4 -1 -6.5t-1 -4.5q0 -10 -8.5 -14t-14.5 4q-23 23 -19.5 51.5z" />
<glyph unicode="n" horiz-adv-x="589" d="M-13 327q1 23 7 52q4 27 13 54.5t30 47.5q6 8 18.5 3t10.5 -15q-2 -25 -11.5 -48.5t-13.5 -47.5q-4 -12 -4 -23.5t-2 -21.5q29 55 69.5 107t85.5 91q16 12 36 20.5t38 -1.5q23 -12 24 -36t-1 -46q-4 -41 -11.5 -79t-15.5 -79q-6 -23 -12 -49.5t-2 -50.5q6 -37 40 -39h6 q30 0 58 18q70 47 130.5 102.5t117.5 114.5q6 6 12 0t2 -14q-51 -59 -109.5 -110.5t-121.5 -96.5q-20 -14 -43 -27.5t-45.5 -16.5t-43 6.5t-34.5 39.5q-12 24 -12 48q0 6 1 14q5 32 13 63q4 23 10 45.5t11 44.5q2 8 5 21.5t6 28t4 27.5t-3 22q-6 12 -15.5 11t-18.5 -8 t-18.5 -17.5t-13.5 -16.5q-33 -33 -55 -64q-25 -29 -47.5 -61.5t-48.5 -60.5q-8 -12 -17 2q-8 -10 -14 0q-16 23 -15 46z" />
<glyph unicode="o" horiz-adv-x="569" d="M-16 356q14 38 36 70l3 2q-2 10 -2 22q0 19 6 42q8 29 31.5 49t52 28.5t57.5 -1t47 -38.5q17 -26 17 -55q0 -11 -2 -23q-8 -42 -25 -77q-6 -14 -12.5 -28.5t-16.5 -29.5q37 -12 75 -15q23 -2 44 -2q14 0 27 1q72 8 136 26.5t115 69.5q4 6 9.5 1t1.5 -11 q-70 -77 -170 -101q-63 -16 -128 -15q-37 0 -75 5q-12 2 -26.5 5.5t-26.5 7.5q-14 -16 -29.5 -28.5t-34.5 -20.5q-29 -10 -56.5 0t-43.5 39q-14 25 -14 49q-1 14 4 28zM12 317q2 -20 13.5 -31.5t26 -15.5t31 1.5t30.5 17.5l7 7l7 7q-31 16 -56.5 40t-37.5 52 q-10 -18 -16.5 -36.5t-4.5 -41.5zM63 416q10 -31 33 -51.5t51 -34.5q14 23 24.5 46t16.5 46q6 20 5.5 41.5t-8 39t-23.5 26.5t-43 3q-41 -10 -53 -44q-7 -19 -7 -40q0 -16 4 -32z" />
<glyph unicode="p" horiz-adv-x="589" d="M-193 -166q2 45 14.5 90t26.5 88q16 47 33 94.5t35 94.5q16 43 33.5 86t38.5 86q16 41 34.5 87t49.5 77q6 6 16 3t8 -14q-4 -37 -21.5 -71.5t-33.5 -69.5q6 10 12 18.5t13 16.5q18 25 36.5 47t38.5 45q14 16 30.5 29.5t39.5 9.5q25 -4 35 -21.5t12 -39t-1 -44t-7 -38.5 q-10 -59 -37 -113q14 -1 27 -1q90 0 174 24q96 26 184 77q4 4 8 -1t0 -9q-84 -70 -192 -95q-88 -21 -173 -21q-20 0 -40 1q-10 -20 -21.5 -38.5t-25.5 -34.5q-10 -12 -24.5 -24.5t-31 -20t-32 -5t-27.5 22.5q-10 18 -7 33.5t13 28t25.5 21.5t29.5 15q16 6 29.5 9.5t30.5 7.5 q10 20 18 39.5t17 40.5q6 20 11 38.5t9 38.5q2 8 4 23.5t0 29t-13 19.5t-38 -6q-4 -2 -11 -10.5t-12 -12.5q-41 -47 -75.5 -94t-69.5 -98q-10 -29 -22.5 -56.5t-22.5 -56.5q-37 -90 -68 -178q-16 -43 -30.5 -88t-38.5 -84q-2 -4 -6.5 -2t-4.5 6zM60 199.5q1 -9.5 12 -15.5 q8 -4 20.5 9.5t16.5 17.5q10 14 19 27.5t19 27.5q-35 -4 -55 -18q-8 -4 -15 -12.5t-12.5 -17.5t-4.5 -18.5z" />
<glyph unicode="q" horiz-adv-x="503" d="M-117 12q2 6 11 6q4 -2 7 -2t7 -2q39 4 74.5 14.5t70.5 24.5q10 41 22.5 82t26.5 82q8 23 14.5 45.5t16.5 44.5q-16 -23 -35.5 -36t-42.5 -17q-31 -4 -46 9t-20 36t-2 48.5t9 45.5t17.5 49t27.5 54.5t39.5 41t52.5 13.5q41 -4 51 -36q6 -17 6 -35q0 -15 -4 -31q6 0 11 -7 q4 8 9 14.5t9 14.5q4 6 12.5 3t3.5 -11q-23 -98 -58.5 -190.5t-61.5 -190.5q0 -2 -1 -2t-1 -2q35 18 68.5 31.5t68.5 37.5q72 55 138.5 113.5t119.5 132.5q6 10 14 5t4 -15q-55 -86 -118.5 -148.5t-145.5 -123.5q-37 -29 -78 -45.5t-84 -34.5q-8 -27 -14 -53.5t-12 -55.5 q57 -61 90 -141q6 -18 13 -65q5 -37 5 -73v-21q-2 -46 -20 -72q-10 -14 -27 -14q-16 0 -37 11q-43 23 -59.5 74t-20.5 94q-4 35 -4 70q0 17 1 35q3 51 14 102q-57 51 -138 80q-6 4 -4 10zM-47 0q45 -16 78 -43q4 14 7 27.5t7 29.5q-23 -6 -46.5 -10t-45.5 -4zM32 344 q-1 -22 4 -37.5t18.5 -19.5t35.5 12q15 11 23 25q20 25 33.5 51t25.5 55q2 14 4 31.5t-4 27.5q-16 23 -37.5 22t-38.5 -17q-20 -20 -32.5 -49t-22.5 -56q-8 -23 -9 -45zM59 -297q4 -23 9.5 -52.5t17.5 -47.5q6 -25 35 -19q33 -20 35 15q2 10 2 21v22v8q0 73 -35 145 q-20 49 -60 90q-9 -55 -9 -106q0 -39 5 -76z" />
<glyph unicode="r" horiz-adv-x="542" d="M-8 480q4 40 14 77q20 88 55 166q8 18 25.5 43t44.5 22q25 -4 31 -25.5t2 -41.5q-4 -47 -19.5 -92t-31.5 -88q-14 -31 -29.5 -65t-38.5 -60q20 -20 53 -21q18 0 33.5 8.5t32.5 18.5q6 10 11 17t11 12q12 14 26.5 1.5t6.5 -28.5q-25 -47 -47 -92t-33 -99q-4 -23 -7 -56.5 t18 -49.5q22 -17 46 -17q8 0 16 2q32 8 58 21q88 45 158 112.5t119 151.5q4 8 11 4t3 -12q-70 -121 -176 -203q-41 -31 -92 -63.5t-105 -34.5q-55 0 -76.5 28.5t-22.5 72.5v5q1 42 15 90q16 50 35 93q-29 -17 -59 -17q-6 0 -12 1q-36 4 -60 45q-17 29 -17 61q0 6 1 13z M29 471.5q0 -20.5 6 -37.5q16 39 35.5 75t31.5 77q8 23 13.5 44t9.5 44q2 8 6 25.5t0 25.5q-6 14 -11 16t-9.5 -3t-9.5 -12t-7 -13q-23 -47 -38 -98.5t-23 -102.5q-4 -20 -4 -40.5z" />
<glyph unicode="s" horiz-adv-x="417" d="M-195 -29q8 43 31 80t53.5 69t67.5 57.5t74 45.5q10 6 18 11.5t19 9.5q-8 29 -19.5 56.5t-21.5 55.5q-20 46 -38 94q-11 29 -11 62q0 20 4 41q4 25 16 50.5t37 35.5v2q16 8 28.5 4t20.5 -13t12 -23.5t4 -28.5q-4 -35 -22.5 -73t-40.5 -73q6 -20 14 -38.5t17 -39.5 q10 -23 18 -47t16 -49q82 39 167 70.5t165 72.5q8 4 11.5 -3t-3.5 -11q-76 -51 -161.5 -83t-171.5 -68q6 -29 10 -56.5t6 -56.5q0 -10 1 -21q0 -31 -5 -64q-6 -44 -22.5 -84t-44 -73t-68.5 -49q-29 -11 -56 -11q-8 0 -16 1q-35 4 -62 24q-26 18 -40 50q-9 22 -9 49 q0 11 2 24zM-163 -54q1 -36 26 -59q25 -27 60 -27h1q36 0 66 19q57 35 78.5 101.5t21.5 128.5q-2 29 -6 56.5t-10 55.5q-16 -8 -32.5 -16t-33.5 -19q-49 -33 -93 -75.5t-67 -100.5q-11 -27 -11 -59v-5zM12 551q0 -27 5.5 -51.5t9.5 -34.5q0 -4 2 -6q21 45 33 92q4 15 3 28 q0 27 -18 44q-20 -4 -27.5 -24.5t-7.5 -47.5z" />
<glyph unicode="t" horiz-adv-x="479" d="M-106 737q18 25 45.5 37t58.5 15.5t62.5 -1t58.5 -10.5q49 129 110 252q4 10 12.5 29.5t19.5 39t24.5 34t29.5 14.5q4 8 11 6q18 -8 24 -24.5t5 -36t-6.5 -39t-8.5 -33.5q-16 -59 -34.5 -117.5t-43.5 -116.5q-4 -14 -10 -26t-12 -25q35 -12 69.5 -21t67.5 -9t60.5 11 t45.5 42q2 4 5.5 3t3.5 -5q-6 -39 -33 -56.5t-61 -21.5q-13 -2 -27 -2q-21 0 -42 4q-36 6 -63 16q-10 4 -19 6.5t-20 6.5q-35 -76 -76.5 -148t-95.5 -137q-6 -33 -11 -63.5t-7 -63.5q-2 -30 -2 -62q0 -25 1 -49q3 -58 32 -104q16 -25 39.5 -41t52.5 -16q31 0 54.5 16 t45.5 37q72 68 128 148.5t99 170.5q4 8 12.5 4t4.5 -14q-29 -59 -60.5 -114.5t-72.5 -106.5q-33 -43 -71 -87t-87 -69q-30 -17 -61 -17q-11 1 -23 3q-43 8 -76 39q-41 39 -53 92t-14 104v23q0 56 8 110q10 66 28.5 131.5t41 129t45.5 125.5q-12 4 -21 4q-29 6 -55 6 q-21 0 -39 -4q-41 -8 -88 -31q-4 -2 -10.5 2t-1.5 10zM63 457q41 63 78 126.5t70 131.5q-16 6 -29.5 11t-27.5 11q-6 -10 -9 -22q-23 -63 -44 -128t-38 -130zM164 764q14 -4 27.5 -10t29.5 -13q23 47 39 94.5t31 94.5q6 18 15 43.5t16.5 53.5t8.5 53.5t-7 43.5 q-8 -2 -16.5 -14t-16.5 -28.5t-14.5 -32t-8.5 -21.5q-12 -29 -24.5 -55.5t-22.5 -54.5q-16 -39 -29.5 -77t-27.5 -77z" />
<glyph unicode="u" horiz-adv-x="614" d="M-13 302q-2 11 -2 22q0 24 8 50q11 38 31.5 72.5t38.5 49.5q8 6 19.5 1t7.5 -18q-10 -25 -23.5 -48t-21.5 -50q-4 -12 -7 -32.5t-2 -37t12 -22.5t36 8q16 8 25.5 25.5t19.5 31.5q10 16 20.5 30.5t20.5 29.5q16 23 32.5 46t35.5 42q2 4 4 3t2 -3q12 6 23.5 -3.5t4.5 -25.5 q-10 -23 -24.5 -59.5t-24.5 -78.5t-15 -85q-2 -18 -2 -34q0 -23 4 -43q6 -33 30 -55q22 -20 63 -20h8q57 2 105.5 42t83.5 81q35 39 64 84t52 92q4 6 11.5 2t3.5 -10q-31 -66 -72 -126t-94 -111q-41 -39 -90 -65q-34 -18 -73 -18q-16 0 -34 3q-58 10 -86 54q-23 36 -23 80 q0 9 1 19q4 45 11 91t24 92q-16 -29 -36 -55.5t-38 -51.5q-16 -23 -41 -39t-55 -6q-33 12 -38 46z" />
<glyph unicode="v" horiz-adv-x="679" d="M-14 270q-1 10 -1 21q0 67 23 131q8 25 18.5 54.5t39.5 37.5q8 4 8 -4q8 -23 -2.5 -42t-18.5 -42q-8 -27 -13 -52.5t-9 -54.5q-2 -14 -3 -30.5t3 -30.5q8 -35 31.5 -35t46.5 21q18 16 32.5 34.5t28.5 36.5q14 16 26.5 34t24.5 36q-8 12 -14 37q-9 37 -13 81q-1 15 -2 31 q0 28 4 56q6 43 23 83t45 68q18 20 46 26.5t46 -19.5q12 -16 13 -40t-4 -46q-4 -53 -25 -104.5t-43 -98.5l-37 -68q6 -16 19 -33q37 -56 92 -74q36 -12 75 -11q20 1 40 3q60 10 114.5 42t87.5 79q4 6 10.5 2t1.5 -10q-45 -66 -116.5 -105.5t-151.5 -43.5h-14q-57 0 -101 28 q-49 32 -79 86q-27 -41 -54.5 -77.5t-60.5 -65.5q-31 -29 -61 -29q-15 0 -29 8q-43 22 -47 80zM236 571q-4 -26 -5 -52q0 -48 15 -97q42 70 72 146q28 71 28 141v10q-8 14 -22 12q-16 -2 -30.5 -18.5t-21.5 -28.5q-30 -52 -36 -113z" />
<glyph unicode="w" horiz-adv-x="854" d="M-12 318q0 38 12 77q12 41 33.5 77t46.5 54q6 4 12 -1t4 -13q-10 -43 -27.5 -83t-23.5 -87q0 -6 -2 -18.5t-2 -25.5t2 -24.5t10 -13.5q16 -4 32.5 4t27.5 19q10 14 20 27.5t19 29.5q10 35 20 55q8 12 21.5 6t9.5 -20q-8 -29 -11.5 -57.5t1.5 -57.5q5 -37 39 -47 q7 -2 15 -2q26 0 54 27q23 18 41 39.5t35 44.5q-23 31 -33 68.5t-10 78.5t9 81t24 73q8 18 20 39.5t27.5 40t35 31t44.5 10.5t36 -14.5t14 -30t1 -38t-6 -36.5q-16 -78 -46 -151.5t-77 -139.5q35 -39 96 -45q26 -4 53 -4q18 0 38 2q48 4 95 16.5t89 34.5t73 55q4 4 7 1t1 -7 q-31 -43 -92 -75q-61 -34 -131 -48q-45 -9 -90 -9q-25 0 -49 3q-68 8 -113 45q-35 -49 -86 -94q-14 -12 -31.5 -22.5t-36 -13.5t-36 3t-31.5 25q-16 23 -22.5 50.5t-2.5 55.5q-12 -23 -26.5 -42t-31.5 -31.5t-35.5 -11.5t-39.5 22q-26 26 -26 68zM368 526q-3 -20 -3 -40 q1 -23 5 -45q8 -42 29 -81q6 8 11.5 16.5t11.5 16.5q51 88 78 182q8 29 11 64t-4 57.5t-25 23.5h-1q-18 0 -51 -38q-23 -33 -39.5 -73t-22.5 -83z" />
<glyph unicode="x" horiz-adv-x="696" d="M-120 130q1 5 7 3q27 -2 51.5 10.5t46 32t40 42t34.5 40.5q6 4 11.5 10t9.5 11q-23 29 -42.5 59.5t-31.5 58.5q-8 20 -12 55q-1 13 -1 25q0 21 4 40q7 30 26.5 47.5t56.5 4.5q10 -4 10 -14q-6 -78 -55 -123q10 -31 16 -43q10 -23 24.5 -41t30.5 -37q20 25 40 50.5 t42 50.5q31 41 63 78.5t68 72.5q18 18 45 34.5t54 -1.5q2 0 1 -2t-3 -2q-29 -4 -53.5 -21.5t-45 -41t-38 -51t-33.5 -48.5q-29 -37 -57.5 -74t-57.5 -73q39 -41 87 -76t108 -35h12q52 0 104 16q58 18 105 50q49 33 91 75t71 95q4 8 11 4t3 -13q-35 -72 -88 -124t-123 -93 q-66 -37 -140 -47q-16 -2 -31 -2q-58 0 -116 29q-31 16 -61.5 38.5t-59.5 51.5q-27 -31 -53 -60.5t-57 -54.5q-25 -18 -53.5 -27.5t-57.5 11.5q-4 4 -3 9zM28 513q-2 -28 3 -58q12 20 20 41.5t8 44.5q-29 0 -31 -28z" />
<glyph unicode="y" horiz-adv-x="522" d="M-340 -392q2 62 18 118q39 121 127.5 212t192.5 158q61 41 131 76q8 43 18.5 88t26.5 88q-8 -10 -15 -19.5t-14 -19.5q-10 -14 -23 -31.5t-28.5 -32t-33 -24.5t-37.5 -8q-45 2 -51 41q-3 13 -3 26q0 28 9 60q14 47 37.5 92t37.5 62q12 12 28.5 0.5t6.5 -27.5 q-23 -33 -39 -63.5t-24 -67.5q-4 -16 -7.5 -33.5t0.5 -34.5q4 -16 12.5 -21t17.5 -2t19.5 11t16.5 16q53 53 93 117t75 129q4 8 12 4t4 -12q2 4 4 5t4 3q6 6 14.5 1t4.5 -15q-23 -39 -44.5 -76t-37.5 -78q-16 -39 -26.5 -78t-18.5 -79v-3q25 12 50.5 25.5t51.5 26.5 q68 35 131.5 74.5t126.5 82.5q4 2 7.5 -1t-0.5 -7q-51 -53 -113 -91t-123 -75q-35 -20 -69.5 -38.5t-69.5 -39.5q-12 -72 -20.5 -143.5t-20.5 -142.5q-8 -55 -23.5 -122t-42 -128.5t-68.5 -108.5t-104 -65q-22 -6 -44 -6q-29 0 -57 10q-50 18 -83 59q-37 45 -37 103v5z M-301 -406q4 -32 20.5 -61t51.5 -47q33 -18 63.5 -18t59 13t52 35.5t42.5 51.5q37 57 58.5 121.5t33.5 132t19.5 136t17.5 134.5q2 8 3 16.5t3 16.5q-20 -10 -40 -22.5t-40 -24.5q-51 -31 -100 -68t-92.5 -80t-77 -93t-54.5 -107q-12 -33 -18 -68q-4 -21 -4 -41q0 -13 2 -27 z" />
<glyph unicode="z" horiz-adv-x="567" d="M-188 -248q-1 12 -2 23q0 33 10 63q18 51 53 95t79 80t93 66t94 54q14 8 27.5 14.5t26.5 14.5q-10 47 -41 76.5t-89 31.5q-4 0 -4 1t-2 1q-2 2 -2 7q0 4 6 8q2 0 3.5 1t3.5 1q20 14 55 40.5t67.5 57.5t54 61.5t13.5 53.5q-32 11 -67 11q-28 0 -58 -7q-23 -6 -44 -14.5 t-38 -24.5q-18 -20 -17 -37.5t7 -42.5q2 -10 -5 -15t-16 -1q-23 12 -27.5 35.5t3.5 46.5q8 29 29.5 45t46.5 26q23 10 52.5 18.5t59 8.5t56 -10.5t43.5 -34.5v-6q10 -18 4 -43t-23 -45q-29 -35 -69.5 -66t-85.5 -53q37 -4 67.5 -29.5t46.5 -60.5q2 -4 4 -10.5t4 -10.5 q90 47 177 97t163 120q4 4 9.5 -1t1.5 -9q-76 -78 -164 -130t-180 -103q9 -38 9 -79q0 -13 -1 -27q-4 -56 -15 -105q-10 -47 -29.5 -104.5t-50 -107.5t-72.5 -88t-97 -46q-14 -2 -26 -2q-33 0 -60 15q-37 21 -58.5 58t-25.5 82zM-158 -236.5q2 -31.5 15.5 -59.5t37 -46 t58.5 -20h8q29 0 55 14q28 16 52 41.5t41.5 55t29.5 56.5q12 25 25.5 64t23 84t13.5 92q2 19 2 37q0 27 -4 51q-49 -27 -103.5 -57.5t-103.5 -67.5t-88 -83t-56 -101q-8 -29 -6 -60.5z" />
<glyph unicode="{" horiz-adv-x="325" d="M0 835.5q0 6.5 8 8.5q35 2 58.5 23.5t41 52t28.5 65.5t22 66q20 59 37.5 116.5t37.5 114.5q12 33 31 81t43.5 91t57 69.5t73.5 18.5q4 0 4 -4t-4 -4q-31 0 -55.5 -25.5t-44 -61.5t-32.5 -75t-23 -65q-23 -57 -40.5 -114.5t-35.5 -117.5q-8 -27 -20.5 -65.5t-29 -75.5 t-38 -67.5t-49.5 -41.5q20 -16 34.5 -42.5t21.5 -58.5t9 -64.5t0 -57.5q-4 -53 -13 -104.5t-20 -104.5q-6 -31 -9 -66.5t1 -69.5t21.5 -58.5t52.5 -32.5q4 0 4 -4t-4 -4q-43 -4 -67.5 18.5t-37 58t-13.5 76.5t5 76q10 59 22.5 117.5t14.5 118.5q0 27 -2 56.5t-10 57 t-22.5 50t-39.5 34.5l-12 6q-6 2 -6 8.5z" />
<glyph unicode="|" horiz-adv-x="335" d="M145 621q0 109 2.5 215t-0.5 215q0 100 1.5 167.5t4.5 128t7 127t10 168.5q0 6 3 7.5t5 -7.5q6 -100 9 -166.5t4.5 -127t1.5 -129v-170.5v-228.5t-5 -228.5q-4 -109 -10 -213t-10 -213q2 -14 -2 -14t-6 12q-2 117 -7.5 229.5t-7.5 227.5z" />
<glyph unicode="}" horiz-adv-x="387" d="M-42 167q1 3 5 3q31 -2 54.5 11.5t41 36t29.5 51t21 59.5q16 53 28.5 109.5t28.5 109.5q6 27 14 63.5t21.5 71.5t32 64.5t45.5 39.5q-29 14 -41.5 48t-15.5 75t1 82t8 68q10 66 21.5 129t15.5 129q2 33 -2 74t-17 75.5t-39 55t-67 12.5q-2 0 -2 2t2 2q47 18 79 1 t50.5 -53t26.5 -83t6 -86q-2 -59 -11 -120.5t-20 -121.5q-4 -31 -11 -75t-5 -87t16.5 -78t51.5 -47q4 -2 3 -5t-5 -5h-13q-35 -39 -55 -80t-35 -94q-16 -61 -31.5 -122.5t-31.5 -123.5q-10 -35 -25.5 -77.5t-39 -75.5t-56.5 -48.5t-76 5.5q-4 2 -3 5z" />
<glyph unicode="~" horiz-adv-x="620" d="M53 705v2q23 45 71 70.5t99 19.5q35 -4 69 -26.5t67.5 -40t66.5 -17.5t63 43q4 4 9.5 2t3.5 -6q-16 -55 -67.5 -70.5t-102.5 6.5q-33 12 -60.5 33.5t-62.5 32.5q-45 12 -84 -2.5t-72 -46.5z" />
<glyph unicode="&#xa3;" horiz-adv-x="892" d="M2 233q-4 4 0 9q-4 16 3 34.5t20 30.5q29 29 67.5 34t73.5 -1q14 20 23.5 40.5t19.5 41.5q29 72 44 145.5t26 151.5q0 4 1 9t1 9q-23 -2 -44.5 -3t-43.5 5q-4 2 -5.5 6.5t2.5 8.5q41 23 97 28q16 98 33.5 195.5t56.5 189.5q18 45 45 90.5t60.5 82t74.5 62t88 34.5 q53 8 89 -15.5t54.5 -65.5t20.5 -94.5t-12 -99.5q-33 -106 -106 -193t-161 -137q-2 -1 -2 3q53 41 97.5 90t79.5 110q31 59 53 135t0 144q-14 37 -37 56.5t-50.5 22.5t-57 -6.5t-56.5 -27.5q-41 -29 -73.5 -71t-57.5 -89q-47 -96 -66.5 -200.5t-31.5 -209.5v-4q47 0 88 -12 q4 -2 4 -8t-4 -8q-23 -8 -47.5 -11.5t-46.5 -5.5q-12 -100 -33 -199.5t-66 -189.5q-4 -6 -12 -22q33 -10 76 -28.5t88 -34t91 -24t84 0t67.5 37t41.5 90.5q0 4 3.5 4t3.5 -4q-2 -45 -20.5 -79t-48.5 -56.5t-65.5 -33t-72.5 -10.5q-51 2 -100.5 21.5t-96.5 42.5 q-20 10 -38.5 18.5t-41.5 16.5q-29 -39 -69.5 -64.5t-81.5 -9.5q-2 -2 -6 -2q-8 4 -17 16q-2 2 -3 2t-3 2zM15.5 272.5q-9.5 -12.5 0.5 -30.5q39 -6 70 11t55 48q-23 6 -43 6q-6 0 -23.5 -3t-33.5 -11t-25.5 -20.5z" />
<glyph unicode="&#xa5;" horiz-adv-x="884" d="M4 931q-8 50 0 103t31 99q18 37 50 76.5t70 69.5t81 42t86 -4q53 -23 68.5 -65t10 -92t-22 -102t-28.5 -93q-8 -27 -18 -57.5t-18.5 -63.5t-11.5 -64.5t5 -58.5q6 -27 22.5 -38t36 -11t39 8t35.5 20q27 20 48.5 47t39.5 56q35 55 60.5 115.5t48 123t46.5 124t52 120.5 q4 4 9.5 2t3.5 -6q-2 -8 -7 -20q18 25 43 39t60 6q4 0 3 -3.5t-3 -3.5q-33 -2 -54.5 -25.5t-37 -55t-25.5 -68.5t-18 -64q-23 -74 -44.5 -147.5t-43.5 -146.5q-12 -41 -23.5 -81t-24.5 -81q18 -2 37 -6t35 -9q4 0 4 -5t-4 -5q-20 -4 -39.5 -6t-42.5 -4q-4 -18 -9 -35.5 t-9 -34.5q23 0 47 -2t47 -6q4 -2 4 -7t-4 -7q-27 -8 -53.5 -12.5t-55.5 -8.5q-16 -49 -36.5 -96t-51.5 -88q-29 -39 -68.5 -66.5t-82.5 -38t-87 1t-81 50.5q-35 35 -48.5 77t-9 84t25 80.5t54.5 69.5q4 2 6.5 -1t0.5 -7q-47 -45 -53.5 -107.5t17 -115t73 -80t110.5 -4.5 q76 29 118 95t68 144q-35 -2 -67.5 -1t-65.5 14v2v2q33 16 66 19t67 7h15q4 18 9 36t9 34q-33 0 -63.5 4t-63.5 6q-2 0 -3 3t3 3q33 6 62.5 14.5t64.5 8.5h12q23 78 44.5 154.5t46.5 154.5q-16 -41 -36 -81t-42 -79q-18 -29 -47 -61.5t-62 -56t-69.5 -27.5t-69.5 25 t-36 75.5t8.5 98t29.5 99.5t29 81q8 27 22 63.5t20.5 71.5t0 66.5t-38.5 50.5q-27 14 -54.5 12t-54 -14.5t-51.5 -33t-43 -40.5q-37 -43 -62.5 -97.5t-30.5 -111.5t12 -111.5t65 -95.5q2 -4 0 -6t-5 0q-45 25 -69.5 68t-32.5 93z" />
<glyph unicode="&#xad;" d="M27 760q-6 0 0 6q29 16 63.5 17t67.5 1q37 0 74.5 -4t74.5 -14q4 -2 4 -6t-4 -4q-37 -10 -74.5 -14.5t-74.5 -2.5q-33 0 -67.5 2.5t-63.5 18.5z" />
<glyph unicode="&#xff;" horiz-adv-x="522" d="M-340 -391.5q2 61.5 18 117.5q39 121 127.5 212t192.5 158q61 41 131 76q8 43 18.5 88t26.5 88q-8 -10 -15 -19.5t-14 -19.5q-10 -14 -23 -31.5t-28.5 -32t-33 -24.5t-37.5 -8q-45 2 -51.5 41t7 86t37 92t37.5 62q12 12 28.5 0.5t6.5 -27.5q-23 -33 -39 -63.5t-24 -67.5 q-4 -16 -7.5 -33.5t0.5 -34.5q4 -16 12.5 -21t17.5 -2t19.5 11t16.5 16q53 53 93 117t75 129q4 8 12 4t4 -12q2 4 4 5t4 3q6 6 14.5 1t4.5 -15q-23 -39 -44.5 -76t-37.5 -78q-16 -39 -26.5 -78t-18.5 -79v-3q25 12 50.5 25.5t51.5 26.5q68 35 131.5 74.5t126.5 82.5 q4 2 7.5 -1t-0.5 -7q-51 -53 -113 -91t-123 -75q-35 -20 -69.5 -38.5t-69.5 -39.5q-12 -72 -20.5 -143.5t-20.5 -142.5q-8 -55 -23.5 -122t-42 -128.5t-68.5 -108.5t-104 -65q-51 -14 -101 4t-83 59q-39 47 -37 108.5zM-301 -405.5q4 -32.5 20.5 -61.5t51.5 -47 q33 -18 63.5 -18t59 13t52 35.5t42.5 51.5q37 57 58.5 121.5t33.5 132t19.5 136t17.5 134.5q2 8 3 16.5t3 16.5q-20 -10 -40 -22.5t-40 -24.5q-51 -31 -100 -68t-92.5 -80t-77 -93t-54.5 -107q-12 -33 -18 -68t-2 -67.5z" />
<glyph unicode="&#x2000;" horiz-adv-x="824" />
<glyph unicode="&#x2001;" horiz-adv-x="1649" />
<glyph unicode="&#x2002;" horiz-adv-x="824" />
<glyph unicode="&#x2003;" horiz-adv-x="1649" />
<glyph unicode="&#x2004;" horiz-adv-x="549" />
<glyph unicode="&#x2005;" horiz-adv-x="412" />
<glyph unicode="&#x2006;" horiz-adv-x="274" />
<glyph unicode="&#x2007;" horiz-adv-x="274" />
<glyph unicode="&#x2008;" horiz-adv-x="206" />
<glyph unicode="&#x2009;" horiz-adv-x="329" />
<glyph unicode="&#x200a;" horiz-adv-x="91" />
<glyph unicode="&#x2010;" d="M27 760q-6 0 0 6q29 16 63.5 17t67.5 1q37 0 74.5 -4t74.5 -14q4 -2 4 -6t-4 -4q-37 -10 -74.5 -14.5t-74.5 -2.5q-33 0 -67.5 2.5t-63.5 18.5z" />
<glyph unicode="&#x2011;" d="M27 760q-6 0 0 6q29 16 63.5 17t67.5 1q37 0 74.5 -4t74.5 -14q4 -2 4 -6t-4 -4q-37 -10 -74.5 -14.5t-74.5 -2.5q-33 0 -67.5 2.5t-63.5 18.5z" />
<glyph unicode="&#x2012;" d="M27 760q-6 0 0 6q29 16 63.5 17t67.5 1q37 0 74.5 -4t74.5 -14q4 -2 4 -6t-4 -4q-37 -10 -74.5 -14.5t-74.5 -2.5q-33 0 -67.5 2.5t-63.5 18.5z" />
<glyph unicode="&#x2013;" horiz-adv-x="1146" d="M35 760q-22 0 0 6q103 16 226 17t241 1q132 0 266 -4t266 -14q14 -2 14 -6t-14 -4q-132 -10 -266 -14.5t-266 -2.5q-118 0 -241 2.5t-226 18.5z" />
<glyph unicode="&#x2014;" horiz-adv-x="2170" d="M45 760q-42 0 0 6q207 16 453.5 17t481.5 1q264 0 531.5 -4t531.5 -14q29 -2 29 -6t-29 -4q-264 -10 -531.5 -14.5t-531.5 -2.5q-235 0 -481.5 2.5t-453.5 18.5z" />
<glyph unicode="&#x202f;" horiz-adv-x="329" />
<glyph unicode="&#x205f;" horiz-adv-x="412" />
<glyph unicode="&#x20ac;" horiz-adv-x="718" d="M-33 733q49 31 113 37q6 29 13 55.5t16 55.5q-31 0 -63 3t-62 11q-2 0 -2 2t2 2q35 10 68.5 14.5t68.5 4.5q29 76 63.5 146.5t79.5 135.5q27 39 66 87t85 80t96 39t99 -36q45 -41 48.5 -94t-18.5 -107.5t-58.5 -102.5t-69.5 -75v2q23 25 45.5 55.5t38.5 65.5t24.5 73 t2.5 75q-6 43 -30 64.5t-54.5 24.5t-62.5 -8.5t-56 -31.5q-86 -70 -147.5 -177.5t-102.5 -218.5q29 -4 58.5 -8t60.5 -12q4 0 3 -5t-5 -5l-129 -6q-2 -4 -3 -7.5t-3 -7.5q-16 -47 -25 -92q41 0 84 -16q4 -2 4 -7.5t-4 -7.5q-25 -6 -48.5 -9t-45.5 -5q-6 -35 -11.5 -66.5 t-7.5 -66.5q-6 -68 -4 -138.5t33 -129.5q33 -61 69.5 -79t75.5 -6.5t76 45t71 77t61.5 87.5t45.5 74q4 4 10.5 2t4.5 -8q-18 -53 -55 -121.5t-86.5 -121t-108 -76t-119.5 11.5q-55 33 -83 88t-37 120.5t-4 133.5t13 127q4 10 5.5 21.5t3.5 21.5q-25 -2 -50.5 -3t-50.5 3 q-8 4 -2 10z" />
<glyph unicode="&#x25fc;" horiz-adv-x="604" d="M0 0v604h604v-604h-604z" />
</font>
</defs>
</svg>
